<svg width="1440" height="912" viewBox="0 0 1440 912" fill="none"
    xmlns="http://www.w3.org/2000/svg">
    <g clip-path="url(#clip0_242_823)">
        <rect width="1440" height="912" fill="#101722"/>
        <g filter="url(#filter0_f_242_823)">
            <path fill-rule="evenodd" clip-rule="evenodd" d="M857.199 911.041C883.785 920.196 886.047 956.511 908.132 973.376C928.452 988.895 968.262 979.806 977.631 1003.01C986.858 1025.87 957.458 1046.09 946.41 1068.19C937.262 1086.5 930.676 1104.61 918.538 1121.24C899.986 1146.66 888.264 1181.63 857.199 1190.45C824.924 1199.61 785.716 1188.64 762.147 1165.64C739.322 1143.37 749.893 1106.61 740.637 1076.7C731.755 1047.99 703.398 1023.85 709.164 994.431C715.093 964.186 742.485 941.488 770.199 925.876C796.22 911.218 828.787 901.256 857.199 911.041Z" fill="#E14594"/>
        </g>
        <g filter="url(#filter1_f_242_823)">
            <path fill-rule="evenodd" clip-rule="evenodd" d="M900.312 1234.97C912.18 1239.05 913.189 1255.26 923.048 1262.78C932.119 1269.71 949.89 1265.65 954.072 1276.01C958.191 1286.2 945.067 1295.23 940.135 1305.09C936.052 1313.26 933.112 1321.34 927.693 1328.76C919.412 1340.11 914.179 1355.71 900.312 1359.64C885.905 1363.73 868.402 1358.84 857.881 1348.57C847.692 1338.63 852.411 1322.23 848.279 1308.89C844.314 1296.08 831.656 1285.31 834.23 1272.18C836.876 1258.68 849.104 1248.55 861.476 1241.59C873.091 1235.05 887.629 1230.6 900.312 1234.97Z" fill="#E14594"/>
        </g>
        <g filter="url(#filter2_f_242_823)">
            <path fill-rule="evenodd" clip-rule="evenodd" d="M1009.96 976.938C1036.55 986.094 1038.81 1022.41 1060.89 1039.27C1081.21 1054.79 1121.02 1045.7 1130.39 1068.91C1139.62 1091.76 1110.22 1111.99 1099.17 1134.09C1090.02 1152.39 1083.44 1170.5 1071.3 1187.14C1052.75 1212.56 1041.03 1247.52 1009.96 1256.34C977.686 1265.51 938.478 1254.54 914.908 1231.54C892.084 1209.26 902.655 1172.5 893.399 1142.59C884.517 1113.89 856.159 1089.75 861.926 1060.33C867.855 1030.08 895.247 1007.39 922.961 991.773C948.982 977.115 981.549 967.154 1009.96 976.938Z" fill="#E14594"/>
        </g>
        <g filter="url(#filter3_f_242_823)">
            <path fill-rule="evenodd" clip-rule="evenodd" d="M738.779 957.614C782.465 950.8 817.949 991.533 850.684 1020.03C880.141 1045.68 903.895 1075.99 916.319 1112.19C928.775 1148.48 937.265 1189.16 920.652 1223.9C904.667 1257.32 865.276 1271.92 831.525 1289.48C802.231 1304.72 772.097 1317.21 738.779 1318.54C704.28 1319.91 670.787 1312.5 640.245 1297.1C605.476 1279.56 556.037 1262.51 553.341 1225C550.482 1185.23 608.785 1168.23 628.454 1133.08C642.704 1107.62 635.019 1076 650.581 1051.25C673.785 1014.34 694.345 964.545 738.779 957.614Z" fill="#182952"/>
        </g>
        <g filter="url(#filter4_f_242_823)">
            <path fill-rule="evenodd" clip-rule="evenodd" d="M535.868 1011.44C575.894 1009.13 588.298 1066.18 619.497 1090.31C648.19 1112.51 690.517 1116.45 710.227 1146.31C732.633 1180.26 753.886 1227.19 732.728 1261.87C710.93 1297.59 654.583 1289.27 614.136 1303.79C587.316 1313.42 564.359 1335.34 535.868 1332.54C508.328 1329.83 492.724 1302.25 468.469 1289.46C438.789 1273.81 393.374 1278.73 378.493 1249.57C363.854 1220.9 386.533 1187.23 401.805 1158.85C415.03 1134.28 440.289 1120.39 459.244 1099.55C486.114 1070 495.039 1013.79 535.868 1011.44Z" fill="#E14594"/>
        </g>
        <g filter="url(#filter5_f_242_823)">
            <path fill-rule="evenodd" clip-rule="evenodd" d="M992.779 893.074C1019.74 896.296 1046.41 902.849 1067.4 919.357C1087.58 935.228 1094.16 960.195 1106.27 982.338C1121.54 1010.25 1159.49 1036.37 1147.45 1065.69C1135.18 1095.55 1087.5 1088.82 1057.03 1102.21C1034.62 1112.07 1017.44 1134.14 992.779 1133.69C968.257 1133.24 951.951 1110.91 930.298 1099.89C903.56 1086.28 866.116 1086.84 851.196 1061.62C835.976 1035.9 847.48 1003.53 856.565 975.276C865.782 946.617 876.749 915.741 903.259 899.744C929.208 884.084 962.334 889.436 992.779 893.074Z" fill="#2B3595"/>
        </g>
        <g filter="url(#filter6_f_242_823)">
            <path fill-rule="evenodd" clip-rule="evenodd" d="M450.162 835.005C480.084 835.509 486.068 879.922 511.742 894.646C541.944 911.967 590.484 897.812 609.327 926.288C627.593 953.893 615.707 994.763 595.343 1020.99C576.505 1045.25 534.81 1035.97 509.813 1054.44C483.45 1073.91 482.057 1119.07 450.162 1128.22C418.087 1137.42 376.87 1124.21 357.327 1098.18C337.853 1072.23 356.17 1036.6 357.426 1004.67C358.18 985.484 358.296 967.37 363.204 948.756C368.502 928.663 374.206 909.268 386.989 892.546C404.587 869.527 420.376 834.504 450.162 835.005Z" fill="#7045AF"/>
        </g>
        <g filter="url(#filter7_f_242_823)">
            <path fill-rule="evenodd" clip-rule="evenodd" d="M423.749 1093.25C453.671 1093.75 459.655 1138.16 485.329 1152.89C515.531 1170.21 564.071 1156.05 582.914 1184.53C601.18 1212.13 589.294 1253 568.93 1279.23C550.092 1303.49 508.397 1294.22 483.4 1312.68C457.036 1332.15 455.644 1377.31 423.749 1386.46C391.674 1395.66 350.457 1382.46 330.914 1356.42C311.44 1330.47 329.757 1294.84 331.013 1262.91C331.767 1243.72 331.883 1225.61 336.791 1207C342.089 1186.9 347.793 1167.51 360.576 1150.79C378.174 1127.77 393.963 1092.74 423.749 1093.25Z" fill="#7045AF"/>
        </g>
    </g>
    <defs>
        <filter id="filter0_f_242_823" x="208.397" y="407.135" width="1271" height="1286.54" filterUnits="userSpaceOnUse" color-interpolation-filters="sRGB">
            <feFlood flood-opacity="0" result="BackgroundImageFix"/>
            <feBlend mode="normal" in="SourceGraphic" in2="BackgroundImageFix" result="shape"/>
            <feGaussianBlur stdDeviation="250" result="effect1_foregroundBlur_242_823"/>
        </filter>
        <filter id="filter1_f_242_823" x="333.888" y="733.226" width="1120.97" height="1127.86" filterUnits="userSpaceOnUse" color-interpolation-filters="sRGB">
            <feFlood flood-opacity="0" result="BackgroundImageFix"/>
            <feBlend mode="normal" in="SourceGraphic" in2="BackgroundImageFix" result="shape"/>
            <feGaussianBlur stdDeviation="250" result="effect1_foregroundBlur_242_823"/>
        </filter>
        <filter id="filter2_f_242_823" x="361.159" y="473.033" width="1271" height="1286.54" filterUnits="userSpaceOnUse" color-interpolation-filters="sRGB">
            <feFlood flood-opacity="0" result="BackgroundImageFix"/>
            <feBlend mode="normal" in="SourceGraphic" in2="BackgroundImageFix" result="shape"/>
            <feGaussianBlur stdDeviation="250" result="effect1_foregroundBlur_242_823"/>
        </filter>
        <filter id="filter3_f_242_823" x="53.2393" y="456.858" width="1376.65" height="1361.84" filterUnits="userSpaceOnUse" color-interpolation-filters="sRGB">
            <feFlood flood-opacity="0" result="BackgroundImageFix"/>
            <feBlend mode="normal" in="SourceGraphic" in2="BackgroundImageFix" result="shape"/>
            <feGaussianBlur stdDeviation="250" result="effect1_foregroundBlur_242_823"/>
        </filter>
        <filter id="filter4_f_242_823" x="-126.23" y="511.372" width="1367.67" height="1321.41" filterUnits="userSpaceOnUse" color-interpolation-filters="sRGB">
            <feFlood flood-opacity="0" result="BackgroundImageFix"/>
            <feBlend mode="normal" in="SourceGraphic" in2="BackgroundImageFix" result="shape"/>
            <feGaussianBlur stdDeviation="250" result="effect1_foregroundBlur_242_823"/>
        </filter>
        <filter id="filter5_f_242_823" x="343.786" y="389.164" width="1305.99" height="1244.53" filterUnits="userSpaceOnUse" color-interpolation-filters="sRGB">
            <feFlood flood-opacity="0" result="BackgroundImageFix"/>
            <feBlend mode="normal" in="SourceGraphic" in2="BackgroundImageFix" result="shape"/>
            <feGaussianBlur stdDeviation="250" result="effect1_foregroundBlur_242_823"/>
        </filter>
        <filter id="filter6_f_242_823" x="-151.587" y="335" width="1269.94" height="1296.14" filterUnits="userSpaceOnUse" color-interpolation-filters="sRGB">
            <feFlood flood-opacity="0" result="BackgroundImageFix"/>
            <feBlend mode="normal" in="SourceGraphic" in2="BackgroundImageFix" result="shape"/>
            <feGaussianBlur stdDeviation="250" result="effect1_foregroundBlur_242_823"/>
        </filter>
        <filter id="filter7_f_242_823" x="-178" y="593.241" width="1269.94" height="1296.14" filterUnits="userSpaceOnUse" color-interpolation-filters="sRGB">
            <feFlood flood-opacity="0" result="BackgroundImageFix"/>
            <feBlend mode="normal" in="SourceGraphic" in2="BackgroundImageFix" result="shape"/>
            <feGaussianBlur stdDeviation="250" result="effect1_foregroundBlur_242_823"/>
        </filter>
        <clipPath id="clip0_242_823">
            <rect width="1440" height="912" fill="white"/>
        </clipPath>
    </defs>
</svg>
