<svg width="697" height="391" viewBox="0 0 697 391" fill="none" xmlns="http://www.w3.org/2000/svg">
<g filter="url(#filter0_ddd_145_2535)">
<g filter="url(#filter1_iii_145_2535)">
<path d="M24 23.0473C24 21.2806 24 20.3972 24.3438 19.7224C24.6463 19.1288 25.1288 18.6463 25.7224 18.3438C26.3972 18 27.2806 18 29.0473 18H874.654C876.421 18 877.304 18 877.979 18.3438C878.573 18.6463 879.055 19.1288 879.358 19.7224C879.702 20.3972 879.702 21.2806 879.702 23.0473V34.4037H24V23.0473Z" fill="#363636"/>
</g>
<g clip-path="url(#clip0_145_2535)">
<g clip-path="url(#clip1_145_2535)">
<path d="M55.7768 28.5727H60.2571C60.8253 28.5727 61.1212 28.2795 61.1212 27.7191V24.5323C61.1212 23.972 60.8253 23.6787 60.2571 23.6787H55.7768C55.2112 23.6787 54.9153 23.9694 54.9153 24.5323V27.7191C54.9153 28.2795 55.2112 28.5727 55.7768 28.5727ZM55.8108 28.0516C55.5699 28.0516 55.4364 27.926 55.4364 27.672V24.5795C55.4364 24.3255 55.5699 24.1998 55.8108 24.1998H57.0049V28.0516H55.8108ZM60.223 24.1998C60.4639 24.1998 60.5975 24.3255 60.5975 24.5795V27.672C60.5975 27.926 60.4639 28.0516 60.223 28.0516H57.4998V24.1998H60.223ZM56.4916 25.1582C56.5859 25.1582 56.6645 25.077 56.6645 24.988C56.6645 24.8989 56.5859 24.8204 56.4916 24.8204H55.9548C55.8606 24.8204 55.782 24.8989 55.782 24.988C55.782 25.077 55.8606 25.1582 55.9548 25.1582H56.4916ZM56.4916 25.8626C56.5859 25.8626 56.6645 25.784 56.6645 25.6924C56.6645 25.6033 56.5859 25.5248 56.4916 25.5248H55.9548C55.8606 25.5248 55.782 25.6033 55.782 25.6924C55.782 25.784 55.8606 25.8626 55.9548 25.8626H56.4916ZM56.4916 26.5643C56.5859 26.5643 56.6645 26.4884 56.6645 26.3967C56.6645 26.3077 56.5859 26.2318 56.4916 26.2318H55.9548C55.8606 26.2318 55.782 26.3077 55.782 26.3967C55.782 26.4884 55.8606 26.5643 55.9548 26.5643H56.4916Z" fill="#B7B7B7"/>
</g>
<path d="M71.1286 28.1242L69.2113 26.2487C69.1447 26.1821 69.1102 26.1082 69.1102 26.0219C69.1102 25.9357 69.1447 25.8568 69.2137 25.7927L71.1311 23.9197C71.1853 23.8655 71.2543 23.8359 71.3332 23.8359C71.4983 23.8359 71.6265 23.9641 71.6265 24.1267C71.6265 24.2056 71.5944 24.282 71.5378 24.3387L69.8126 26.0195L71.5378 27.7052C71.5944 27.7619 71.6265 27.8358 71.6265 27.9171C71.6265 28.0798 71.4983 28.2079 71.3332 28.2079C71.2543 28.2079 71.1853 28.1784 71.1286 28.1242Z" fill="#B7B7B7"/>
<path d="M80.6025 28.2079C80.6839 28.2079 80.7504 28.1784 80.8071 28.1242L82.7245 26.2511C82.791 26.1821 82.8255 26.1107 82.8255 26.0219C82.8255 25.9357 82.7935 25.8593 82.7245 25.7952L80.8071 23.9197C80.7504 23.8655 80.6839 23.8359 80.6025 23.8359C80.4374 23.8359 80.3093 23.9641 80.3093 24.1267C80.3093 24.2056 80.3438 24.282 80.398 24.3387L82.1256 26.0244L80.398 27.7052C80.3413 27.7643 80.3093 27.8358 80.3093 27.9171C80.3093 28.0798 80.4374 28.2079 80.6025 28.2079Z" fill="#5A5A5A"/>
</g>
<g clip-path="url(#clip2_145_2535)">
<circle cx="32.2018" cy="26.2018" r="1.89273" fill="#ED6A5E"/>
<circle cx="32.2018" cy="26.2018" r="1.735" stroke="black" stroke-opacity="0.1" stroke-width="0.315455"/>
<circle cx="38.5116" cy="26.2018" r="1.89273" fill="#F4BD50"/>
<circle cx="38.5116" cy="26.2018" r="1.735" stroke="black" stroke-opacity="0.1" stroke-width="0.315455"/>
<circle cx="44.8202" cy="26.2018" r="1.89273" fill="#61C454"/>
<circle cx="44.8202" cy="26.2018" r="1.735" stroke="black" stroke-opacity="0.1" stroke-width="0.315455"/>
</g>
<path d="M285.704 24.814C285.704 23.754 285.704 23.224 285.911 22.8191C286.092 22.463 286.382 22.1734 286.738 21.9919C287.143 21.7856 287.673 21.7856 288.733 21.7856H615.469C616.529 21.7856 617.059 21.7856 617.464 21.9919C617.82 22.1734 618.11 22.463 618.291 22.8191C618.497 23.224 618.497 23.754 618.497 24.814V27.59C618.497 28.65 618.497 29.1801 618.291 29.5849C618.11 29.9411 617.82 30.2306 617.464 30.4121C617.059 30.6184 616.529 30.6184 615.469 30.6184H288.733C287.673 30.6184 287.143 30.6184 286.738 30.4121C286.382 30.2306 286.092 29.9411 285.911 29.5849C285.704 29.1801 285.704 28.65 285.704 27.59V24.814Z" fill="#434343"/>
<g clip-path="url(#clip3_145_2535)">
<path d="M614.658 25.8022C614.711 25.8022 614.754 25.7856 614.787 25.7505L615.545 24.9871C615.585 24.9464 615.604 24.9021 615.604 24.8503C615.604 24.8004 615.584 24.7523 615.545 24.7154L614.787 23.9446C614.754 23.9076 614.711 23.8892 614.658 23.8892C614.558 23.8892 614.478 23.9723 614.478 24.074C614.478 24.1239 614.497 24.1646 614.528 24.1997L614.97 24.6322C614.883 24.6193 614.794 24.6119 614.706 24.6119C613.791 24.6119 613.059 25.3438 613.059 26.2606C613.059 27.1774 613.796 27.9149 614.711 27.9149C615.628 27.9149 616.364 27.1774 616.364 26.2606C616.364 26.1497 616.286 26.0702 616.175 26.0702C616.068 26.0702 615.996 26.1497 615.996 26.2606C615.996 26.9741 615.425 27.5471 614.711 27.5471C614 27.5471 613.427 26.9741 613.427 26.2606C613.427 25.5416 613.994 24.9723 614.706 24.9723C614.826 24.9723 614.937 24.9815 615.035 24.9982L614.53 25.4972C614.497 25.5305 614.478 25.5712 614.478 25.6211C614.478 25.7227 614.558 25.8022 614.658 25.8022Z" fill="#E3E3E3"/>
</g>
<path d="M278.449 28.7255C278.496 28.7255 278.567 28.7097 278.632 28.6728C280.135 27.848 280.657 27.4659 280.657 26.5066V24.517C280.657 24.2008 280.535 24.0875 280.274 23.9742C279.984 23.8503 279.01 23.5077 278.726 23.4102C278.64 23.3812 278.538 23.3628 278.449 23.3628C278.361 23.3628 278.259 23.3865 278.173 23.4102C277.888 23.4919 276.915 23.8529 276.625 23.9742C276.364 24.0849 276.241 24.2008 276.241 24.517V26.5066C276.241 27.4659 276.766 27.8427 278.264 28.6728C278.332 28.7097 278.402 28.7255 278.449 28.7255ZM278.59 23.8951C278.932 24.0321 279.676 24.2983 280.068 24.438C280.141 24.467 280.159 24.5065 280.159 24.6014V26.4091C280.159 27.1813 279.775 27.3895 278.598 28.1062C278.525 28.151 278.488 28.1669 278.452 28.1669V23.8661C278.488 23.8661 278.528 23.874 278.59 23.8951Z" fill="#B7B7B7"/>
<g clip-path="url(#clip4_145_2535)">
<path d="M880 34.4038H24V542.404H880V34.4038Z" fill="#1F2933"/>
<g filter="url(#filter2_dd_145_2535)">
<path d="M285.5 74.4038C285.5 65.5672 292.663 58.4038 301.5 58.4038H450.5C459.337 58.4038 466.5 65.5672 466.5 74.4038C466.5 83.2404 459.337 90.4038 450.5 90.4038H301.5C292.663 90.4038 285.5 83.2404 285.5 74.4038Z" fill="#8247FF"/>
<path d="M306 77.5838C307.74 77.5838 308.844 76.5158 309.012 74.8358H309.036V77.4038H310.308V74.5718C310.308 73.5518 309.72 73.0118 308.64 73.0118H305.772V74.2238H308.304C308.304 75.4238 307.452 76.2758 306.144 76.2758C304.536 76.2758 303.468 75.0878 303.468 73.1798C303.468 71.2958 304.524 70.1198 306.204 70.1198C307.536 70.1198 308.508 70.9238 308.772 72.2438H310.248C309.888 70.1198 308.388 68.8238 306.204 68.8238C303.6 68.8238 301.992 70.6358 301.992 73.1798C301.992 75.8558 303.648 77.5838 306 77.5838ZM314.617 77.5838C316.117 77.5838 317.185 76.7558 317.509 75.3878H316.129C315.913 76.0238 315.361 76.3838 314.629 76.3838C313.549 76.3838 312.853 75.6278 312.757 74.5118H317.533V74.1758C317.497 72.1118 316.297 70.8518 314.497 70.8518C312.721 70.8518 311.341 72.1478 311.341 74.2478C311.341 76.1918 312.673 77.5838 314.617 77.5838ZM312.817 73.5158C313.033 72.6038 313.657 72.0518 314.497 72.0518C315.325 72.0518 315.889 72.6038 316.069 73.5158H312.817ZM322.098 77.4038V76.2038H321.378C320.85 76.2038 320.574 75.9038 320.574 75.3638V72.2438H322.218V71.0438H320.574V68.8718H319.158V71.0438H318.042V72.2438H319.158V75.4598C319.158 76.7198 319.902 77.4038 321.282 77.4038H322.098ZM327.968 77.5358C329.048 77.5358 329.744 77.1278 330.116 76.4438C330.128 76.5158 330.152 76.5998 330.176 76.6598C330.284 77.1398 330.68 77.4038 331.328 77.4038H332V76.2998H331.652C331.436 76.2998 331.34 76.2038 331.34 76.0238V73.1438C331.34 71.7878 330.392 70.8518 328.676 70.8518C327.032 70.8518 325.832 71.7878 325.7 73.1318H327.128C327.212 72.4718 327.812 72.0158 328.652 72.0158C329.468 72.0158 329.948 72.4238 329.96 73.0478C329.948 73.5518 329.24 73.5878 328.28 73.6958C327.044 73.8398 325.568 74.1518 325.556 75.6398C325.544 76.8278 326.504 77.5358 327.968 77.5358ZM328.256 76.4198C327.428 76.4198 326.984 76.0958 326.984 75.5438C326.984 74.8718 327.644 74.7638 328.436 74.6678C329.108 74.5838 329.72 74.4998 329.96 74.1278V75.0158C329.96 75.8678 329.228 76.4198 328.256 76.4198ZM337.144 77.4038V74.3678H339.964C341.548 74.3678 342.724 73.3358 342.724 71.6438C342.724 70.1438 341.68 69.0038 339.964 69.0038H335.704V77.4038H337.144ZM337.144 70.2998H339.892C340.72 70.2998 341.26 70.8518 341.26 71.6438C341.26 72.3998 340.792 73.0718 339.892 73.0718H337.144V70.2998ZM345.968 77.5358C347.048 77.5358 347.744 77.1278 348.116 76.4438C348.128 76.5158 348.152 76.5998 348.176 76.6598C348.284 77.1398 348.68 77.4038 349.328 77.4038H350V76.2998H349.652C349.436 76.2998 349.34 76.2038 349.34 76.0238V73.1438C349.34 71.7878 348.392 70.8518 346.676 70.8518C345.032 70.8518 343.832 71.7878 343.7 73.1318H345.128C345.212 72.4718 345.812 72.0158 346.652 72.0158C347.468 72.0158 347.948 72.4238 347.96 73.0478C347.948 73.5518 347.24 73.5878 346.28 73.6958C345.044 73.8398 343.568 74.1518 343.556 75.6398C343.544 76.8278 344.504 77.5358 345.968 77.5358ZM346.256 76.4198C345.428 76.4198 344.984 76.0958 344.984 75.5438C344.984 74.8718 345.644 74.7638 346.436 74.6678C347.108 74.5838 347.72 74.4998 347.96 74.1278V75.0158C347.96 75.8678 347.228 76.4198 346.256 76.4198ZM351.604 79.8038C352.852 79.8038 353.524 79.3478 353.848 78.4958L356.62 71.0438H355.144L353.356 75.8678L351.532 71.0438H350.008L352.528 77.4038H352.792L352.54 78.0758C352.42 78.4118 352.132 78.6038 351.604 78.6038H350.452V79.8038H351.604ZM358.913 77.4038V73.5518C358.925 72.7118 359.537 72.0758 360.509 72.0758C361.193 72.0758 361.625 72.5318 361.625 73.2398V77.4038H363.041V73.5518C363.053 72.7118 363.665 72.0758 364.637 72.0758C365.321 72.0758 365.753 72.5318 365.753 73.2398V77.4038H367.181V73.1678C367.181 71.7998 366.329 70.8518 364.997 70.8518C363.989 70.8518 363.173 71.3678 362.813 72.0398C362.477 71.3078 361.781 70.8518 360.869 70.8518C359.921 70.8518 359.141 71.3078 358.745 71.9318L358.637 71.0438H357.497V77.4038H358.913ZM371.476 77.5838C372.976 77.5838 374.044 76.7558 374.368 75.3878H372.988C372.772 76.0238 372.22 76.3838 371.488 76.3838C370.408 76.3838 369.712 75.6278 369.616 74.5118H374.392V74.1758C374.356 72.1118 373.156 70.8518 371.356 70.8518C369.58 70.8518 368.2 72.1478 368.2 74.2478C368.2 76.1918 369.532 77.5838 371.476 77.5838ZM369.676 73.5158C369.892 72.6038 370.516 72.0518 371.356 72.0518C372.184 72.0518 372.748 72.6038 372.928 73.5158H369.676ZM376.913 77.4038V73.5518C376.925 72.7238 377.549 72.0878 378.473 72.0878C379.265 72.0878 379.733 72.5558 379.733 73.2638V77.4038H381.149V73.1918C381.149 71.7638 380.261 70.8518 378.905 70.8518C377.957 70.8518 377.153 71.3198 376.757 71.9798L376.637 71.0438H375.497V77.4038H376.913ZM385.977 77.4038V76.2038H385.257C384.729 76.2038 384.453 75.9038 384.453 75.3638V72.2438H386.097V71.0438H384.453V68.8718H383.037V71.0438H381.921V72.2438H383.037V75.4598C383.037 76.7198 383.781 77.4038 385.161 77.4038H385.977ZM389.666 77.5838C391.226 77.5838 392.114 76.8638 392.114 75.6878C392.114 74.5478 391.358 74.1638 390.098 73.7438L389.33 73.4918C388.874 73.3358 388.322 73.2038 388.322 72.7118C388.322 72.2798 388.682 72.0158 389.306 72.0158C390.038 72.0158 390.554 72.3518 390.626 73.0718H391.97C391.802 71.6318 390.794 70.8518 389.318 70.8518C387.794 70.8518 386.93 71.5958 386.93 72.7238C386.93 73.8998 387.842 74.2598 388.898 74.6078L389.738 74.8838C390.29 75.0638 390.698 75.1598 390.698 75.6518C390.698 76.1438 390.314 76.4198 389.594 76.4198C388.814 76.4198 388.226 76.0598 388.178 75.3758H386.81C386.894 76.7678 387.926 77.5838 389.666 77.5838ZM396.731 77.4038L397.583 75.3278H401.219L402.071 77.4038H403.559L400.115 69.0038H398.675L395.243 77.4038H396.731ZM399.407 70.8638L400.703 74.0558H398.099L399.407 70.8638ZM406.086 77.4038V74.3678H408.906C410.49 74.3678 411.666 73.3358 411.666 71.6438C411.666 70.1438 410.622 69.0038 408.906 69.0038H404.646V77.4038H406.086ZM406.086 70.2998H408.834C409.662 70.2998 410.202 70.8518 410.202 71.6438C410.202 72.3998 409.734 73.0718 408.834 73.0718H406.086V70.2998ZM414.406 77.4038V69.0038H412.966V77.4038H414.406ZM422.247 77.4038V76.2038H421.527C420.999 76.2038 420.723 75.9038 420.723 75.3638V72.2438H422.367V71.0438H420.723V68.8718H419.307V71.0438H418.191V72.2438H419.307V75.4598C419.307 76.7198 420.051 77.4038 421.431 77.4038H422.247ZM426.203 77.5838C428.099 77.5838 429.455 76.3118 429.455 74.1638C429.455 72.2918 428.255 70.8518 426.203 70.8518C424.343 70.8518 422.939 72.0878 422.939 74.1638C422.939 76.1318 424.139 77.5838 426.203 77.5838ZM426.203 76.3718C425.159 76.3718 424.379 75.5558 424.379 74.1638C424.379 72.9038 425.099 72.0638 426.203 72.0638C427.307 72.0638 428.015 72.9038 428.015 74.1638C428.015 75.4358 427.343 76.3718 426.203 76.3718ZM432.004 77.4038V75.4718L433.156 74.3198L435.112 77.4038H436.756L434.14 73.3358L436.444 71.0438H434.716L432.004 73.8038V68.4038H430.588V77.4038H432.004ZM439.996 77.5838C441.496 77.5838 442.564 76.7558 442.888 75.3878H441.508C441.292 76.0238 440.74 76.3838 440.008 76.3838C438.928 76.3838 438.232 75.6278 438.136 74.5118H442.912V74.1758C442.876 72.1118 441.676 70.8518 439.876 70.8518C438.1 70.8518 436.72 72.1478 436.72 74.2478C436.72 76.1918 438.052 77.5838 439.996 77.5838ZM438.196 73.5158C438.412 72.6038 439.036 72.0518 439.876 72.0518C440.704 72.0518 441.268 72.6038 441.448 73.5158H438.196ZM445.433 77.4038V73.5518C445.445 72.7238 446.069 72.0878 446.993 72.0878C447.785 72.0878 448.253 72.5558 448.253 73.2638V77.4038H449.669V73.1918C449.669 71.7638 448.781 70.8518 447.425 70.8518C446.477 70.8518 445.673 71.3198 445.277 71.9798L445.157 71.0438H444.017V77.4038H445.433Z" fill="white"/>
</g>
<g opacity="0.75">
<path d="M492.528 77.404V69.004H491.52V77.404H492.528ZM495.359 77.404V73.54C495.371 72.568 496.067 71.776 497.207 71.776C498.167 71.776 498.743 72.34 498.743 73.228V77.404H499.739V73.192C499.739 71.788 498.827 70.9 497.459 70.9C496.511 70.9 495.683 71.344 495.251 72.016L495.155 71.044H494.363V77.404H495.359ZM501.804 69.976C502.224 69.976 502.536 69.652 502.536 69.232C502.536 68.812 502.224 68.5 501.804 68.5C501.384 68.5 501.06 68.812 501.06 69.232C501.06 69.652 501.384 69.976 501.804 69.976ZM502.296 77.404V71.044H501.3V77.404H502.296ZM507.237 77.404V76.564H506.529C505.941 76.564 505.629 76.228 505.629 75.592V71.884H507.345V71.044H505.629V68.872H504.633V71.044H503.457V71.884H504.633V75.592C504.633 76.768 505.293 77.404 506.529 77.404H507.237ZM509.023 69.976C509.443 69.976 509.755 69.652 509.755 69.232C509.755 68.812 509.443 68.5 509.023 68.5C508.603 68.5 508.279 68.812 508.279 69.232C508.279 69.652 508.603 69.976 509.023 69.976ZM509.515 77.404V71.044H508.519V77.404H509.515ZM513.196 77.5C514.3 77.5 515.02 77.044 515.392 76.312V76.504C515.392 77.092 515.752 77.404 516.436 77.404H517V76.588H516.64C516.424 76.588 516.316 76.48 516.316 76.276V73.18C516.316 71.836 515.308 70.9 513.736 70.9C512.224 70.9 511.096 71.776 510.976 73.024H511.96C512.068 72.268 512.788 71.752 513.712 71.752C514.672 71.752 515.332 72.316 515.344 73.12C515.332 73.636 514.492 73.624 513.52 73.72C512.248 73.852 510.832 74.128 510.832 75.592C510.832 76.756 511.756 77.5 513.196 77.5ZM513.34 76.648C512.428 76.648 511.828 76.228 511.828 75.568C511.828 74.752 512.704 74.632 513.58 74.536C514.36 74.452 515.068 74.38 515.344 74.008V74.836C515.344 75.892 514.528 76.648 513.34 76.648ZM521.265 77.404V76.564H520.557C519.969 76.564 519.657 76.228 519.657 75.592V71.884H521.373V71.044H519.657V68.872H518.661V71.044H517.485V71.884H518.661V75.592C518.661 76.768 519.321 77.404 520.557 77.404H521.265ZM525.202 77.536C526.654 77.536 527.686 76.708 527.974 75.4H527.002C526.738 76.228 526.09 76.672 525.202 76.672C523.918 76.672 523.126 75.748 523.066 74.392H527.998V74.116C527.962 72.076 526.834 70.9 525.082 70.9C523.474 70.9 522.07 72.076 522.07 74.248C522.07 76.156 523.318 77.536 525.202 77.536ZM523.126 73.564C523.33 72.424 524.074 71.764 525.082 71.764C526.102 71.764 526.774 72.448 526.954 73.564H523.126ZM534.056 77.5C535.16 77.5 535.88 77.044 536.252 76.312V76.504C536.252 77.092 536.612 77.404 537.296 77.404H537.86V76.588H537.5C537.284 76.588 537.176 76.48 537.176 76.276V73.18C537.176 71.836 536.168 70.9 534.596 70.9C533.084 70.9 531.956 71.776 531.836 73.024H532.82C532.928 72.268 533.648 71.752 534.572 71.752C535.532 71.752 536.192 72.316 536.204 73.12C536.192 73.636 535.352 73.624 534.38 73.72C533.108 73.852 531.692 74.128 531.692 75.592C531.692 76.756 532.616 77.5 534.056 77.5ZM534.2 76.648C533.288 76.648 532.688 76.228 532.688 75.568C532.688 74.752 533.564 74.632 534.44 74.536C535.22 74.452 535.928 74.38 536.204 74.008V74.836C536.204 75.892 535.388 76.648 534.2 76.648ZM542.883 77.404V74.08H545.847C547.335 74.08 548.535 73.168 548.535 71.464C548.535 70.12 547.599 69.004 545.847 69.004H541.875V77.404H542.883ZM542.883 69.928H545.895C546.783 69.928 547.503 70.468 547.503 71.464C547.503 72.4 546.939 73.156 545.895 73.156H542.883V69.928ZM551.88 77.5C552.984 77.5 553.704 77.044 554.076 76.312V76.504C554.076 77.092 554.436 77.404 555.12 77.404H555.684V76.588H555.324C555.108 76.588 555 76.48 555 76.276V73.18C555 71.836 553.992 70.9 552.42 70.9C550.908 70.9 549.78 71.776 549.66 73.024H550.644C550.752 72.268 551.472 71.752 552.396 71.752C553.356 71.752 554.016 72.316 554.028 73.12C554.016 73.636 553.176 73.624 552.204 73.72C550.932 73.852 549.516 74.128 549.516 75.592C549.516 76.756 550.44 77.5 551.88 77.5ZM552.024 76.648C551.112 76.648 550.512 76.228 550.512 75.568C550.512 74.752 551.388 74.632 552.264 74.536C553.044 74.452 553.752 74.38 554.028 74.008V74.836C554.028 75.892 553.212 76.648 552.024 76.648ZM557.264 79.804C558.356 79.804 558.944 79.432 559.208 78.736L562.064 71.044H561.044L559.052 76.408L556.988 71.044H555.92L558.44 77.404H558.68L558.332 78.352C558.188 78.736 557.912 78.964 557.264 78.964H556.244V79.804H557.264ZM564.113 77.404V73.54C564.125 72.568 564.821 71.776 566.009 71.776C566.861 71.776 567.389 72.328 567.389 73.18V77.404H568.373V73.54C568.385 72.568 569.081 71.776 570.269 71.776C571.121 71.776 571.649 72.328 571.649 73.18V77.404H572.645V73.144C572.645 71.848 571.781 70.9 570.437 70.9C569.465 70.9 568.589 71.416 568.181 72.16C567.857 71.392 567.137 70.9 566.177 70.9C565.265 70.9 564.437 71.344 564.005 72.028L563.909 71.044H563.117V77.404H564.113ZM577.011 77.536C578.463 77.536 579.495 76.708 579.783 75.4H578.811C578.547 76.228 577.899 76.672 577.011 76.672C575.727 76.672 574.935 75.748 574.875 74.392H579.807V74.116C579.771 72.076 578.643 70.9 576.891 70.9C575.283 70.9 573.879 72.076 573.879 74.248C573.879 76.156 575.127 77.536 577.011 77.536ZM574.935 73.564C575.139 72.424 575.883 71.764 576.891 71.764C577.911 71.764 578.583 72.448 578.763 73.564H574.935ZM582.113 77.404V73.54C582.125 72.568 582.821 71.776 583.961 71.776C584.921 71.776 585.497 72.34 585.497 73.228V77.404H586.493V73.192C586.493 71.788 585.581 70.9 584.213 70.9C583.265 70.9 582.437 71.344 582.005 72.016L581.909 71.044H581.117V77.404H582.113ZM591.249 77.404V76.564H590.541C589.953 76.564 589.641 76.228 589.641 75.592V71.884H591.357V71.044H589.641V68.872H588.645V71.044H587.469V71.884H588.645V75.592C588.645 76.768 589.305 77.404 590.541 77.404H591.249Z" fill="white"/>
</g>
<path d="M63 76.4038C66.3137 76.4038 69 73.7175 69 70.4038C69 67.0901 66.3137 64.4038 63 64.4038C59.6863 64.4038 57 67.0901 57 70.4038C57 73.7175 59.6863 76.4038 63 76.4038Z" fill="#7B8794"/>
<path d="M87 76.4038C90.3137 76.4038 93 73.7175 93 70.4038C93 67.0901 90.3137 64.4038 87 64.4038C83.6863 64.4038 81 67.0901 81 70.4038C81 73.7175 83.6863 76.4038 87 76.4038Z" fill="#7B8794"/>
<path d="M111 76.4038C114.314 76.4038 117 73.7175 117 70.4038C117 67.0901 114.314 64.4038 111 64.4038C107.686 64.4038 105 67.0901 105 70.4038C105 73.7175 107.686 76.4038 111 76.4038Z" fill="#7B8794"/>
<path d="M87.98 149.404H89.38L89.8 147.024H91.732L91.312 149.404H92.712L93.132 147.024H94.532V145.792H93.342L93.79 143.216H95.19V141.984H94L94.42 139.604H93.02L92.6 141.984H90.696L91.116 139.604H89.716L89.296 141.984H87.896V143.216H89.072L88.624 145.792H87.21V147.024H88.4L87.98 149.404ZM90.024 145.792L90.472 143.216H92.39L91.942 145.792H90.024Z" fill="white"/>
<path d="M104.811 149.404H106.421V145.568H108.059C109.263 145.568 109.529 145.862 109.711 147.388L109.739 147.626C109.851 148.522 109.921 148.956 110.019 149.404H111.671C111.517 148.9 111.349 148.13 111.265 147.374L111.237 147.136C111.055 145.624 110.831 145.246 109.963 144.938V144.882C110.957 144.448 111.531 143.566 111.531 142.446C111.531 140.584 110.341 139.604 108.059 139.604H104.811V149.404ZM106.421 144.196V140.976H108.059C109.305 140.976 109.907 141.494 109.907 142.586C109.907 143.678 109.305 144.196 108.059 144.196H106.421Z" fill="white"/>
<path d="M116.552 149.488C118.442 149.488 119.618 148.522 119.814 147.164H118.302C118.148 147.794 117.602 148.228 116.552 148.228C115.348 148.228 114.648 147.528 114.536 146.352H119.842V145.834C119.842 143.58 118.582 142.18 116.552 142.18C114.354 142.18 112.94 143.608 112.94 145.848C112.94 148.06 114.354 149.488 116.552 149.488ZM114.55 145.218C114.69 144.056 115.376 143.44 116.552 143.44C117.574 143.44 118.246 144.112 118.316 145.218H114.55Z" fill="white"/>
<path d="M128.25 152.064V142.264H126.766V143.342H126.71C126.234 142.628 125.324 142.18 124.358 142.18C122.426 142.18 121.194 143.608 121.194 145.82C121.194 148.046 122.426 149.488 124.358 149.488C125.282 149.488 126.15 149.04 126.64 148.312H126.696V152.064H128.25ZM122.776 145.82C122.776 144.336 123.546 143.44 124.792 143.44C126.024 143.44 126.752 144.336 126.752 145.82C126.752 147.318 126.01 148.228 124.792 148.228C123.546 148.228 122.776 147.318 122.776 145.82Z" fill="white"/>
<path d="M133.159 149.488C135.301 149.488 136.365 148.438 136.365 146.324V142.264H134.811V146.548C134.811 147.668 134.251 148.228 133.159 148.228C132.109 148.228 131.521 147.64 131.521 146.548V142.264H129.967V146.324C129.967 148.438 131.031 149.488 133.159 149.488Z" fill="white"/>
<path d="M141.735 149.488C143.625 149.488 144.801 148.522 144.997 147.164H143.485C143.331 147.794 142.785 148.228 141.735 148.228C140.531 148.228 139.831 147.528 139.719 146.352H145.025V145.834C145.025 143.58 143.765 142.18 141.735 142.18C139.537 142.18 138.123 143.608 138.123 145.848C138.123 148.06 139.537 149.488 141.735 149.488ZM139.733 145.218C139.873 144.056 140.559 143.44 141.735 143.44C142.757 143.44 143.429 144.112 143.499 145.218H139.733Z" fill="white"/>
<path d="M150.088 149.488C152.104 149.488 153.168 148.746 153.168 147.346C153.168 145.988 152.594 145.47 150.802 145.232L149.738 145.092C148.758 144.966 148.436 144.742 148.436 144.224C148.436 143.636 148.87 143.384 149.906 143.384C150.872 143.384 151.348 143.692 151.502 144.406H153C152.888 142.978 151.768 142.18 149.906 142.18C148.044 142.18 146.91 142.978 146.91 144.308C146.91 145.582 147.596 146.212 149.262 146.422L150.256 146.548C151.264 146.674 151.642 146.912 151.642 147.43C151.642 147.99 151.11 148.284 150.088 148.284C148.926 148.284 148.38 147.92 148.24 147.094H146.742C146.84 148.634 148.03 149.488 150.088 149.488Z" fill="white"/>
<path d="M159.574 149.404H161.576V148.172H159.868C159.098 148.172 158.678 147.752 158.678 146.982V143.496H161.576V142.264H158.678V140.164H157.194V141.774C157.194 142.082 157.012 142.264 156.704 142.264H154.996V143.496H157.124V146.954C157.124 148.536 157.992 149.404 159.574 149.404Z" fill="white"/>
<path d="M166.751 144.854C167.381 144.854 167.815 144.406 167.815 143.776C167.815 143.118 167.381 142.656 166.751 142.656C166.121 142.656 165.673 143.118 165.673 143.776C165.673 144.406 166.121 144.854 166.751 144.854ZM165.673 148.41C165.673 149.04 166.121 149.488 166.751 149.488C167.381 149.488 167.815 149.04 167.815 148.41C167.815 147.752 167.381 147.29 166.751 147.29C166.121 147.29 165.673 147.752 165.673 148.41Z" fill="white"/>
<path d="M91.354 175.488C93.23 175.488 94.448 174.438 94.63 172.884H93.118C92.908 173.85 92.362 174.228 91.354 174.228C90.094 174.228 89.338 173.346 89.338 171.848C89.338 170.364 90.08 169.44 91.354 169.44C92.32 169.44 92.894 169.86 93.048 170.784H94.56C94.42 169.23 93.16 168.18 91.354 168.18C89.212 168.18 87.756 169.664 87.756 171.848C87.756 174.06 89.17 175.488 91.354 175.488Z" fill="white"/>
<path d="M99.5805 175.488C101.722 175.488 102.786 174.438 102.786 172.324V168.264H101.232V172.548C101.232 173.668 100.672 174.228 99.5805 174.228C98.5305 174.228 97.9425 173.64 97.9425 172.548V168.264H96.3885V172.324C96.3885 174.438 97.4525 175.488 99.5805 175.488Z" fill="white"/>
<path d="M104.699 175.404H111.293V174.172H108.129V171.918C108.129 170.266 109.235 169.692 110.943 169.692H111.293V168.18C109.571 168.18 108.549 168.908 108.115 169.79H108.059V168.264H104.699V169.496H106.575V174.172H104.699V175.404Z" fill="white"/>
<path d="M113.206 175.404H119.8V174.172H117.392V165.324H113.206V166.556H115.838V174.172H113.206V175.404Z" fill="white"/>
<path d="M130.933 172.45H135.413V171.078H130.933V172.45Z" fill="white"/>
<path d="M137.787 175.404H139.551L141.511 171.442H141.581L143.527 175.404H145.347L142.659 170.336V170.252L145.137 165.604H143.373L141.623 169.202H141.567L139.817 165.604H137.997L140.503 170.308V170.392L137.787 175.404Z" fill="white"/>
<path d="M155.318 175.404H156.928V171.96H158.566C160.848 171.96 162.136 170.812 162.136 168.782C162.136 166.752 160.848 165.604 158.566 165.604H155.318V175.404ZM156.928 170.588V166.976H158.566C159.882 166.976 160.512 167.564 160.512 168.782C160.512 170 159.882 170.588 158.566 170.588H156.928Z" fill="white"/>
<path d="M166.751 175.488C169.131 175.488 170.461 173.71 170.461 170.546C170.461 167.326 169.131 165.52 166.751 165.52C164.385 165.52 163.041 167.34 163.041 170.546C163.041 173.71 164.371 175.488 166.751 175.488ZM164.679 170.546C164.679 168.054 165.337 166.892 166.751 166.892C168.165 166.892 168.823 168.054 168.823 170.546C168.823 172.996 168.179 174.116 166.751 174.116C165.337 174.116 164.679 172.982 164.679 170.546Z" fill="white"/>
<path d="M175.341 175.488C177.455 175.488 178.729 174.424 178.729 172.646C178.729 171.022 177.987 170.182 176.209 169.874L174.921 169.65C173.843 169.468 173.367 169.006 173.367 168.208C173.367 167.326 173.941 166.864 175.019 166.864C176.181 166.864 176.769 167.382 176.951 168.558H178.533C178.365 166.626 177.091 165.52 175.019 165.52C172.961 165.52 171.757 166.57 171.757 168.334C171.757 169.86 172.653 170.798 174.431 171.106L175.719 171.33C176.727 171.498 177.119 171.89 177.119 172.674C177.119 173.598 176.461 174.144 175.341 174.144C173.955 174.144 173.297 173.57 173.143 172.226H171.561C171.743 174.312 173.101 175.488 175.341 175.488Z" fill="white"/>
<path d="M182.728 175.404H184.338V166.976H187.138V165.604H179.928V166.976H182.728V175.404Z" fill="white"/>
<path d="M203.969 178.064L198.145 165.324H196.689L202.513 178.064H203.969Z" fill="white"/>
<path d="M139.327 198.45H143.807V197.078H139.327V198.45Z" fill="white"/>
<path d="M149.542 201.488C150.508 201.488 151.418 201.04 151.894 200.326H151.95V201.404H153.434V191.324H151.88V195.356H151.824C151.334 194.628 150.466 194.18 149.542 194.18C147.61 194.18 146.378 195.622 146.378 197.848C146.378 200.06 147.61 201.488 149.542 201.488ZM147.96 197.848C147.96 196.35 148.73 195.44 149.976 195.44C151.194 195.44 151.936 196.35 151.936 197.848C151.936 199.332 151.208 200.228 149.976 200.228C148.73 200.228 147.96 199.332 147.96 197.848Z" fill="white"/>
<path d="M164.511 204.064H167.773C169.355 204.064 170.223 203.196 170.223 201.614V194.264H168.739V195.342H168.683C168.207 194.628 167.297 194.18 166.331 194.18C164.399 194.18 163.167 195.608 163.167 197.82C163.167 200.046 164.399 201.488 166.331 201.488C167.255 201.488 168.123 201.04 168.613 200.312H168.669V201.642C168.669 202.412 168.249 202.832 167.479 202.832H164.511V204.064ZM164.749 197.82C164.749 196.336 165.519 195.44 166.765 195.44C167.997 195.44 168.725 196.336 168.725 197.82C168.725 199.318 167.983 200.228 166.765 200.228C165.519 200.228 164.749 199.318 164.749 197.82Z" fill="white"/>
<path d="M171.855 201.404H178.449V200.172H175.285V197.918C175.285 196.266 176.391 195.692 178.099 195.692H178.449V194.18C176.727 194.18 175.705 194.908 175.271 195.79H175.215V194.264H171.855V195.496H173.731V200.172H171.855V201.404Z" fill="white"/>
<path d="M182.728 201.488C183.764 201.488 184.632 201.068 185.15 200.312H185.206V201.404H186.69V196.938C186.69 195.174 185.626 194.18 183.708 194.18C181.832 194.18 180.67 195.062 180.544 196.588H182.056C182.154 195.86 182.742 195.44 183.666 195.44C184.604 195.44 185.136 195.832 185.136 196.546C185.136 196.91 184.982 197.022 184.394 197.092C182.826 197.302 182.112 197.414 181.65 197.568C180.74 197.862 180.25 198.506 180.25 199.43C180.25 200.732 181.16 201.488 182.728 201.488ZM181.818 199.374C181.818 198.912 182.042 198.632 182.504 198.478C183.022 198.31 184.52 198.254 185.136 198.086V198.296C185.136 199.416 184.226 200.242 183.022 200.242C182.224 200.242 181.818 199.948 181.818 199.374Z" fill="white"/>
<path d="M188.784 201.404H190.338V197.4C190.338 196.098 190.87 195.496 192.018 195.496C193.166 195.496 193.684 196.084 193.684 197.4V201.404H195.238V197.4C195.238 195.286 194.314 194.18 192.648 194.18C191.654 194.18 190.842 194.6 190.324 195.356H190.268V194.264H188.784V201.404Z" fill="white"/>
<path d="M201.547 201.404H203.549V200.172H201.841C201.071 200.172 200.651 199.752 200.651 198.982V195.496H203.549V194.264H200.651V192.164H199.167V193.774C199.167 194.082 198.985 194.264 198.677 194.264H196.969V195.496H199.097V198.954C199.097 200.536 199.965 201.404 201.547 201.404Z" fill="white"/>
<path d="M205.503 203.056H211.943V201.824H205.503V203.056Z" fill="white"/>
<path d="M218.336 201.404H220.338V200.172H218.63C217.86 200.172 217.44 199.752 217.44 198.982V195.496H220.338V194.264H217.44V192.164H215.956V193.774C215.956 194.082 215.774 194.264 215.466 194.264H213.758V195.496H215.886V198.954C215.886 200.536 216.754 201.404 218.336 201.404Z" fill="white"/>
<path d="M223.65 204.064H225.19L229.25 194.264H227.682L225.54 199.654H225.484L223.398 194.264H221.774L224.756 201.404L223.65 204.064Z" fill="white"/>
<path d="M230.435 204.064H231.989V200.312H232.045C232.535 201.04 233.403 201.488 234.327 201.488C236.259 201.488 237.491 200.046 237.491 197.82C237.491 195.608 236.259 194.18 234.327 194.18C233.361 194.18 232.451 194.628 231.975 195.342H231.919V194.264H230.435V204.064ZM231.933 197.82C231.933 196.336 232.661 195.44 233.893 195.44C235.139 195.44 235.909 196.336 235.909 197.82C235.909 199.318 235.139 200.228 233.893 200.228C232.675 200.228 231.933 199.318 231.933 197.82Z" fill="white"/>
<path d="M242.47 201.488C244.36 201.488 245.536 200.522 245.732 199.164H244.22C244.066 199.794 243.52 200.228 242.47 200.228C241.266 200.228 240.566 199.528 240.454 198.352H245.76V197.834C245.76 195.58 244.5 194.18 242.47 194.18C240.272 194.18 238.858 195.608 238.858 197.848C238.858 200.06 240.272 201.488 242.47 201.488ZM240.468 197.218C240.608 196.056 241.294 195.44 242.47 195.44C243.492 195.44 244.164 196.112 244.234 197.218H240.468Z" fill="white"/>
<path d="M246.986 195.51H254.406V194.222H246.986V195.51ZM246.986 199.43H254.406V198.142H246.986V199.43Z" fill="white"/>
<path d="M259.245 201.488C261.121 201.488 262.339 200.438 262.521 198.884H261.009C260.799 199.85 260.253 200.228 259.245 200.228C257.985 200.228 257.229 199.346 257.229 197.848C257.229 196.364 257.971 195.44 259.245 195.44C260.211 195.44 260.785 195.86 260.939 196.784H262.451C262.311 195.23 261.051 194.18 259.245 194.18C257.103 194.18 255.647 195.664 255.647 197.848C255.647 200.06 257.061 201.488 259.245 201.488Z" fill="white"/>
<path d="M264.307 201.404H270.901V200.172H268.493V191.324H264.307V192.556H266.939V200.172H264.307V201.404Z" fill="white"/>
<path d="M272.59 201.404H279.184V200.172H276.776V194.264H272.59V195.496H275.222V200.172H272.59V201.404ZM274.914 192.206C274.914 192.78 275.306 193.172 275.88 193.172C276.454 193.172 276.846 192.78 276.846 192.206C276.846 191.632 276.454 191.24 275.88 191.24C275.306 191.24 274.914 191.632 274.914 192.206Z" fill="white"/>
<path d="M284.442 201.488C286.332 201.488 287.508 200.522 287.704 199.164H286.192C286.038 199.794 285.492 200.228 284.442 200.228C283.238 200.228 282.538 199.528 282.426 198.352H287.732V197.834C287.732 195.58 286.472 194.18 284.442 194.18C282.244 194.18 280.83 195.608 280.83 197.848C280.83 200.06 282.244 201.488 284.442 201.488ZM282.44 197.218C282.58 196.056 283.266 195.44 284.442 195.44C285.464 195.44 286.136 196.112 286.206 197.218H282.44Z" fill="white"/>
<path d="M289.519 201.404H291.073V197.4C291.073 196.098 291.605 195.496 292.753 195.496C293.901 195.496 294.419 196.084 294.419 197.4V201.404H295.973V197.4C295.973 195.286 295.049 194.18 293.383 194.18C292.389 194.18 291.577 194.6 291.059 195.356H291.003V194.264H289.519V201.404Z" fill="white"/>
<path d="M302.281 201.404H304.283V200.172H302.575C301.805 200.172 301.385 199.752 301.385 198.982V195.496H304.283V194.264H301.385V192.164H299.901V193.774C299.901 194.082 299.719 194.264 299.411 194.264H297.703V195.496H299.831V198.954C299.831 200.536 300.699 201.404 302.281 201.404Z" fill="white"/>
<path d="M306.238 203.056H312.678V201.824H306.238V203.056Z" fill="white"/>
<path d="M318.006 201.488C319.882 201.488 321.1 200.438 321.282 198.884H319.77C319.56 199.85 319.014 200.228 318.006 200.228C316.746 200.228 315.99 199.346 315.99 197.848C315.99 196.364 316.732 195.44 318.006 195.44C318.972 195.44 319.546 195.86 319.7 196.784H321.212C321.072 195.23 319.812 194.18 318.006 194.18C315.864 194.18 314.408 195.664 314.408 197.848C314.408 200.06 315.822 201.488 318.006 201.488Z" fill="white"/>
<path d="M322.957 201.404H329.551V200.172H326.387V197.918C326.387 196.266 327.493 195.692 329.201 195.692H329.551V194.18C327.829 194.18 326.807 194.908 326.373 195.79H326.317V194.264H322.957V195.496H324.833V200.172H322.957V201.404Z" fill="white"/>
<path d="M334.809 201.488C336.699 201.488 337.875 200.522 338.071 199.164H336.559C336.405 199.794 335.859 200.228 334.809 200.228C333.605 200.228 332.905 199.528 332.793 198.352H338.099V197.834C338.099 195.58 336.839 194.18 334.809 194.18C332.611 194.18 331.197 195.608 331.197 197.848C331.197 200.06 332.611 201.488 334.809 201.488ZM332.807 197.218C332.947 196.056 333.633 195.44 334.809 195.44C335.831 195.44 336.503 196.112 336.573 197.218H332.807Z" fill="white"/>
<path d="M342.616 201.488C343.582 201.488 344.492 201.04 344.968 200.326H345.024V201.404H346.508V191.324H344.954V195.356H344.898C344.408 194.628 343.54 194.18 342.616 194.18C340.684 194.18 339.452 195.622 339.452 197.848C339.452 200.06 340.684 201.488 342.616 201.488ZM341.034 197.848C341.034 196.35 341.804 195.44 343.05 195.44C344.268 195.44 345.01 196.35 345.01 197.848C345.01 199.332 344.282 200.228 343.05 200.228C341.804 200.228 341.034 199.332 341.034 197.848Z" fill="white"/>
<path d="M351.598 201.488C353.488 201.488 354.664 200.522 354.86 199.164H353.348C353.194 199.794 352.648 200.228 351.598 200.228C350.394 200.228 349.694 199.528 349.582 198.352H354.888V197.834C354.888 195.58 353.628 194.18 351.598 194.18C349.4 194.18 347.986 195.608 347.986 197.848C347.986 200.06 349.4 201.488 351.598 201.488ZM349.596 197.218C349.736 196.056 350.422 195.44 351.598 195.44C352.62 195.44 353.292 196.112 353.362 197.218H349.596Z" fill="white"/>
<path d="M356.675 201.404H358.229V197.4C358.229 196.098 358.761 195.496 359.909 195.496C361.057 195.496 361.575 196.084 361.575 197.4V201.404H363.129V197.4C363.129 195.286 362.205 194.18 360.539 194.18C359.545 194.18 358.733 194.6 358.215 195.356H358.159V194.264H356.675V201.404Z" fill="white"/>
<path d="M369.438 201.404H371.44V200.172H369.732C368.962 200.172 368.542 199.752 368.542 198.982V195.496H371.44V194.264H368.542V192.164H367.057V193.774C367.057 194.082 366.876 194.264 366.568 194.264H364.859V195.496H366.987V198.954C366.987 200.536 367.855 201.404 369.438 201.404Z" fill="white"/>
<path d="M373.324 201.404H379.918V200.172H377.51V194.264H373.324V195.496H375.956V200.172H373.324V201.404ZM375.648 192.206C375.648 192.78 376.04 193.172 376.614 193.172C377.188 193.172 377.58 192.78 377.58 192.206C377.58 191.632 377.188 191.24 376.614 191.24C376.04 191.24 375.648 191.632 375.648 192.206Z" fill="white"/>
<path d="M384.197 201.488C385.233 201.488 386.101 201.068 386.619 200.312H386.675V201.404H388.159V196.938C388.159 195.174 387.095 194.18 385.177 194.18C383.301 194.18 382.139 195.062 382.013 196.588H383.525C383.623 195.86 384.211 195.44 385.135 195.44C386.073 195.44 386.605 195.832 386.605 196.546C386.605 196.91 386.451 197.022 385.863 197.092C384.295 197.302 383.581 197.414 383.119 197.568C382.209 197.862 381.719 198.506 381.719 199.43C381.719 200.732 382.629 201.488 384.197 201.488ZM383.287 199.374C383.287 198.912 383.511 198.632 383.973 198.478C384.491 198.31 385.989 198.254 386.605 198.086V198.296C386.605 199.416 385.695 200.242 384.491 200.242C383.693 200.242 383.287 199.948 383.287 199.374Z" fill="white"/>
<path d="M390.225 201.404H396.819V200.172H394.411V191.324H390.225V192.556H392.857V200.172H390.225V201.404Z" fill="white"/>
<path d="M401.924 201.488C403.94 201.488 405.004 200.746 405.004 199.346C405.004 197.988 404.43 197.47 402.638 197.232L401.574 197.092C400.594 196.966 400.272 196.742 400.272 196.224C400.272 195.636 400.706 195.384 401.742 195.384C402.708 195.384 403.184 195.692 403.338 196.406H404.836C404.724 194.978 403.604 194.18 401.742 194.18C399.88 194.18 398.746 194.978 398.746 196.308C398.746 197.582 399.432 198.212 401.098 198.422L402.092 198.548C403.1 198.674 403.478 198.912 403.478 199.43C403.478 199.99 402.946 200.284 401.924 200.284C400.762 200.284 400.216 199.92 400.076 199.094H398.578C398.676 200.634 399.866 201.488 401.924 201.488Z" fill="white"/>
<path d="M422.227 204.064L416.403 191.324H414.947L420.771 204.064H422.227Z" fill="white"/>
<path d="M139.327 224.45H143.807V223.078H139.327V224.45Z" fill="white"/>
<path d="M149.542 227.488C150.508 227.488 151.418 227.04 151.894 226.326H151.95V227.404H153.434V217.324H151.88V221.356H151.824C151.334 220.628 150.466 220.18 149.542 220.18C147.61 220.18 146.378 221.622 146.378 223.848C146.378 226.06 147.61 227.488 149.542 227.488ZM147.96 223.848C147.96 222.35 148.73 221.44 149.976 221.44C151.194 221.44 151.936 222.35 151.936 223.848C151.936 225.332 151.208 226.228 149.976 226.228C148.73 226.228 147.96 225.332 147.96 223.848Z" fill="white"/>
<path d="M166.905 227.488C168.781 227.488 169.999 226.438 170.181 224.884H168.669C168.459 225.85 167.913 226.228 166.905 226.228C165.645 226.228 164.889 225.346 164.889 223.848C164.889 222.364 165.631 221.44 166.905 221.44C167.871 221.44 168.445 221.86 168.599 222.784H170.111C169.971 221.23 168.711 220.18 166.905 220.18C164.763 220.18 163.307 221.664 163.307 223.848C163.307 226.06 164.721 227.488 166.905 227.488Z" fill="white"/>
<path d="M171.967 227.404H178.561V226.172H176.153V217.324H171.967V218.556H174.599V226.172H171.967V227.404Z" fill="white"/>
<path d="M180.25 227.404H186.844V226.172H184.436V220.264H180.25V221.496H182.882V226.172H180.25V227.404ZM182.574 218.206C182.574 218.78 182.966 219.172 183.54 219.172C184.114 219.172 184.506 218.78 184.506 218.206C184.506 217.632 184.114 217.24 183.54 217.24C182.966 217.24 182.574 217.632 182.574 218.206Z" fill="white"/>
<path d="M192.102 227.488C193.992 227.488 195.168 226.522 195.364 225.164H193.852C193.698 225.794 193.152 226.228 192.102 226.228C190.898 226.228 190.198 225.528 190.086 224.352H195.392V223.834C195.392 221.58 194.132 220.18 192.102 220.18C189.904 220.18 188.49 221.608 188.49 223.848C188.49 226.06 189.904 227.488 192.102 227.488ZM190.1 223.218C190.24 222.056 190.926 221.44 192.102 221.44C193.124 221.44 193.796 222.112 193.866 223.218H190.1Z" fill="white"/>
<path d="M197.179 227.404H198.733V223.4C198.733 222.098 199.265 221.496 200.413 221.496C201.561 221.496 202.079 222.084 202.079 223.4V227.404H203.633V223.4C203.633 221.286 202.709 220.18 201.043 220.18C200.049 220.18 199.237 220.6 198.719 221.356H198.663V220.264H197.179V227.404Z" fill="white"/>
<path d="M209.941 227.404H211.943V226.172H210.235C209.465 226.172 209.045 225.752 209.045 224.982V221.496H211.943V220.264H209.045V218.164H207.561V219.774C207.561 220.082 207.379 220.264 207.071 220.264H205.363V221.496H207.491V224.954C207.491 226.536 208.359 227.404 209.941 227.404Z" fill="white"/>
<path d="M213.898 229.056H220.338V227.824H213.898V229.056Z" fill="white"/>
<path d="M222.222 227.404H228.816V226.172H226.408V220.264H222.222V221.496H224.854V226.172H222.222V227.404ZM224.546 218.206C224.546 218.78 224.938 219.172 225.512 219.172C226.086 219.172 226.478 218.78 226.478 218.206C226.478 217.632 226.086 217.24 225.512 217.24C224.938 217.24 224.546 217.632 224.546 218.206Z" fill="white"/>
<path d="M233.487 227.488C234.453 227.488 235.363 227.04 235.839 226.326H235.895V227.404H237.379V217.324H235.825V221.356H235.769C235.279 220.628 234.411 220.18 233.487 220.18C231.555 220.18 230.323 221.622 230.323 223.848C230.323 226.06 231.555 227.488 233.487 227.488ZM231.905 223.848C231.905 222.35 232.675 221.44 233.921 221.44C235.139 221.44 235.881 222.35 235.881 223.848C235.881 225.332 235.153 226.228 233.921 226.228C232.675 226.228 231.905 225.332 231.905 223.848Z" fill="white"/>
<path d="M238.592 221.51H246.012V220.222H238.592V221.51ZM238.592 225.43H246.012V224.142H238.592V225.43Z" fill="white"/>
<path d="M250.038 229.084H251.494V227.46C253.244 227.264 254.28 226.242 254.28 224.646C254.28 223.022 253.538 222.182 251.76 221.874L251.494 221.832V219.018C252.054 219.256 252.376 219.746 252.502 220.558H254.084C253.944 218.934 253.02 217.898 251.494 217.604V215.924H250.038V217.548C248.302 217.716 247.308 218.724 247.308 220.334C247.308 221.86 248.204 222.798 249.982 223.106L250.038 223.12V226.046C249.226 225.836 248.806 225.262 248.694 224.226H247.112C247.266 226.032 248.302 227.152 250.038 227.432V229.084ZM248.918 220.208C248.918 219.48 249.31 219.046 250.038 218.906V221.552C249.268 221.328 248.918 220.894 248.918 220.208ZM251.494 226.088V223.372C252.334 223.568 252.67 223.946 252.67 224.674C252.67 225.416 252.25 225.92 251.494 226.088Z" fill="white"/>
<path d="M363.465 230.064L357.641 217.324H356.185L362.009 230.064H363.465Z" fill="white"/>
<path d="M139.327 250.45H143.807V249.078H139.327V250.45Z" fill="white"/>
<path d="M149.542 253.488C150.508 253.488 151.418 253.04 151.894 252.326H151.95V253.404H153.434V243.324H151.88V247.356H151.824C151.334 246.628 150.466 246.18 149.542 246.18C147.61 246.18 146.378 247.622 146.378 249.848C146.378 252.06 147.61 253.488 149.542 253.488ZM147.96 249.848C147.96 248.35 148.73 247.44 149.976 247.44C151.194 247.44 151.936 248.35 151.936 249.848C151.936 251.332 151.208 252.228 149.976 252.228C148.73 252.228 147.96 251.332 147.96 249.848Z" fill="white"/>
<path d="M166.905 253.488C168.781 253.488 169.999 252.438 170.181 250.884H168.669C168.459 251.85 167.913 252.228 166.905 252.228C165.645 252.228 164.889 251.346 164.889 249.848C164.889 248.364 165.631 247.44 166.905 247.44C167.871 247.44 168.445 247.86 168.599 248.784H170.111C169.971 247.23 168.711 246.18 166.905 246.18C164.763 246.18 163.307 247.664 163.307 249.848C163.307 252.06 164.721 253.488 166.905 253.488Z" fill="white"/>
<path d="M171.967 253.404H178.561V252.172H176.153V243.324H171.967V244.556H174.599V252.172H171.967V253.404Z" fill="white"/>
<path d="M180.25 253.404H186.844V252.172H184.436V246.264H180.25V247.496H182.882V252.172H180.25V253.404ZM182.574 244.206C182.574 244.78 182.966 245.172 183.54 245.172C184.114 245.172 184.506 244.78 184.506 244.206C184.506 243.632 184.114 243.24 183.54 243.24C182.966 243.24 182.574 243.632 182.574 244.206Z" fill="white"/>
<path d="M192.102 253.488C193.992 253.488 195.168 252.522 195.364 251.164H193.852C193.698 251.794 193.152 252.228 192.102 252.228C190.898 252.228 190.198 251.528 190.086 250.352H195.392V249.834C195.392 247.58 194.132 246.18 192.102 246.18C189.904 246.18 188.49 247.608 188.49 249.848C188.49 252.06 189.904 253.488 192.102 253.488ZM190.1 249.218C190.24 248.056 190.926 247.44 192.102 247.44C193.124 247.44 193.796 248.112 193.866 249.218H190.1Z" fill="white"/>
<path d="M197.179 253.404H198.733V249.4C198.733 248.098 199.265 247.496 200.413 247.496C201.561 247.496 202.079 248.084 202.079 249.4V253.404H203.633V249.4C203.633 247.286 202.709 246.18 201.043 246.18C200.049 246.18 199.237 246.6 198.719 247.356H198.663V246.264H197.179V253.404Z" fill="white"/>
<path d="M209.941 253.404H211.943V252.172H210.235C209.465 252.172 209.045 251.752 209.045 250.982V247.496H211.943V246.264H209.045V244.164H207.561V245.774C207.561 246.082 207.379 246.264 207.071 246.264H205.363V247.496H207.491V250.954C207.491 252.536 208.359 253.404 209.941 253.404Z" fill="white"/>
<path d="M213.898 255.056H220.338V253.824H213.898V255.056Z" fill="white"/>
<path d="M225.638 253.488C227.654 253.488 228.718 252.746 228.718 251.346C228.718 249.988 228.144 249.47 226.352 249.232L225.288 249.092C224.308 248.966 223.986 248.742 223.986 248.224C223.986 247.636 224.42 247.384 225.456 247.384C226.422 247.384 226.898 247.692 227.052 248.406H228.55C228.438 246.978 227.318 246.18 225.456 246.18C223.594 246.18 222.46 246.978 222.46 248.308C222.46 249.582 223.146 250.212 224.812 250.422L225.806 250.548C226.814 250.674 227.192 250.912 227.192 251.43C227.192 251.99 226.66 252.284 225.638 252.284C224.476 252.284 223.93 251.92 223.79 251.094H222.292C222.39 252.634 223.58 253.488 225.638 253.488Z" fill="white"/>
<path d="M234.075 253.488C235.965 253.488 237.141 252.522 237.337 251.164H235.825C235.671 251.794 235.125 252.228 234.075 252.228C232.871 252.228 232.171 251.528 232.059 250.352H237.365V249.834C237.365 247.58 236.105 246.18 234.075 246.18C231.877 246.18 230.463 247.608 230.463 249.848C230.463 252.06 231.877 253.488 234.075 253.488ZM232.073 249.218C232.213 248.056 232.899 247.44 234.075 247.44C235.097 247.44 235.769 248.112 235.839 249.218H232.073Z" fill="white"/>
<path d="M242.456 253.488C244.332 253.488 245.55 252.438 245.732 250.884H244.22C244.01 251.85 243.464 252.228 242.456 252.228C241.196 252.228 240.44 251.346 240.44 249.848C240.44 248.364 241.182 247.44 242.456 247.44C243.422 247.44 243.996 247.86 244.15 248.784H245.662C245.522 247.23 244.262 246.18 242.456 246.18C240.314 246.18 238.858 247.664 238.858 249.848C238.858 252.06 240.272 253.488 242.456 253.488Z" fill="white"/>
<path d="M247.406 253.404H254V252.172H250.836V249.918C250.836 248.266 251.942 247.692 253.65 247.692H254V246.18C252.278 246.18 251.256 246.908 250.822 247.79H250.766V246.264H247.406V247.496H249.282V252.172H247.406V253.404Z" fill="white"/>
<path d="M259.259 253.488C261.149 253.488 262.325 252.522 262.521 251.164H261.009C260.855 251.794 260.309 252.228 259.259 252.228C258.055 252.228 257.355 251.528 257.243 250.352H262.549V249.834C262.549 247.58 261.289 246.18 259.259 246.18C257.061 246.18 255.647 247.608 255.647 249.848C255.647 252.06 257.061 253.488 259.259 253.488ZM257.257 249.218C257.397 248.056 258.083 247.44 259.259 247.44C260.281 247.44 260.953 248.112 261.023 249.218H257.257Z" fill="white"/>
<path d="M268.703 253.404H270.705V252.172H268.997C268.227 252.172 267.807 251.752 267.807 250.982V247.496H270.705V246.264H267.807V244.164H266.323V245.774C266.323 246.082 266.141 246.264 265.833 246.264H264.125V247.496H266.253V250.954C266.253 252.536 267.121 253.404 268.703 253.404Z" fill="white"/>
<path d="M272.17 247.51H279.59V246.222H272.17V247.51ZM272.17 251.43H279.59V250.142H272.17V251.43Z" fill="white"/>
<path d="M283.616 255.084H285.072V253.46C286.822 253.264 287.858 252.242 287.858 250.646C287.858 249.022 287.116 248.182 285.338 247.874L285.072 247.832V245.018C285.632 245.256 285.954 245.746 286.08 246.558H287.662C287.522 244.934 286.598 243.898 285.072 243.604V241.924H283.616V243.548C281.88 243.716 280.886 244.724 280.886 246.334C280.886 247.86 281.782 248.798 283.56 249.106L283.616 249.12V252.046C282.804 251.836 282.384 251.262 282.272 250.226H280.69C280.844 252.032 281.88 253.152 283.616 253.432V255.084ZM282.496 246.208C282.496 245.48 282.888 245.046 283.616 244.906V247.552C282.846 247.328 282.496 246.894 282.496 246.208ZM285.072 252.088V249.372C285.912 249.568 286.248 249.946 286.248 250.674C286.248 251.416 285.828 251.92 285.072 252.088Z" fill="white"/>
<path d="M430.621 256.064L424.797 243.324H423.341L429.165 256.064H430.621Z" fill="white"/>
<path d="M139.327 276.45H143.807V275.078H139.327V276.45Z" fill="white"/>
<path d="M149.542 279.488C150.508 279.488 151.418 279.04 151.894 278.326H151.95V279.404H153.434V269.324H151.88V273.356H151.824C151.334 272.628 150.466 272.18 149.542 272.18C147.61 272.18 146.378 273.622 146.378 275.848C146.378 278.06 147.61 279.488 149.542 279.488ZM147.96 275.848C147.96 274.35 148.73 273.44 149.976 273.44C151.194 273.44 151.936 274.35 151.936 275.848C151.936 277.332 151.208 278.228 149.976 278.228C148.73 278.228 147.96 277.332 147.96 275.848Z" fill="white"/>
<path d="M166.877 279.488C168.893 279.488 169.957 278.746 169.957 277.346C169.957 275.988 169.383 275.47 167.591 275.232L166.527 275.092C165.547 274.966 165.225 274.742 165.225 274.224C165.225 273.636 165.659 273.384 166.695 273.384C167.661 273.384 168.137 273.692 168.291 274.406H169.789C169.677 272.978 168.557 272.18 166.695 272.18C164.833 272.18 163.699 272.978 163.699 274.308C163.699 275.582 164.385 276.212 166.051 276.422L167.045 276.548C168.053 276.674 168.431 276.912 168.431 277.43C168.431 277.99 167.899 278.284 166.877 278.284C165.715 278.284 165.169 277.92 165.029 277.094H163.531C163.629 278.634 164.819 279.488 166.877 279.488Z" fill="white"/>
<path d="M175.299 279.488C177.175 279.488 178.393 278.438 178.575 276.884H177.063C176.853 277.85 176.307 278.228 175.299 278.228C174.039 278.228 173.283 277.346 173.283 275.848C173.283 274.364 174.025 273.44 175.299 273.44C176.265 273.44 176.839 273.86 176.993 274.784H178.505C178.365 273.23 177.105 272.18 175.299 272.18C173.157 272.18 171.701 273.664 171.701 275.848C171.701 278.06 173.115 279.488 175.299 279.488Z" fill="white"/>
<path d="M183.526 279.488C185.668 279.488 187.124 278.018 187.124 275.848C187.124 273.664 185.668 272.18 183.526 272.18C181.412 272.18 179.956 273.664 179.956 275.848C179.956 278.018 181.398 279.488 183.526 279.488ZM181.538 275.848C181.538 274.35 182.28 273.44 183.526 273.44C184.786 273.44 185.542 274.35 185.542 275.848C185.542 277.332 184.772 278.228 183.526 278.228C182.28 278.228 181.538 277.332 181.538 275.848Z" fill="white"/>
<path d="M188.462 282.064H190.016V278.312H190.072C190.562 279.04 191.43 279.488 192.354 279.488C194.286 279.488 195.518 278.046 195.518 275.82C195.518 273.608 194.286 272.18 192.354 272.18C191.388 272.18 190.478 272.628 190.002 273.342H189.946V272.264H188.462V282.064ZM189.96 275.82C189.96 274.336 190.688 273.44 191.92 273.44C193.166 273.44 193.936 274.336 193.936 275.82C193.936 277.318 193.166 278.228 191.92 278.228C190.702 278.228 189.96 277.318 189.96 275.82Z" fill="white"/>
<path d="M200.497 279.488C202.387 279.488 203.563 278.522 203.759 277.164H202.247C202.093 277.794 201.547 278.228 200.497 278.228C199.293 278.228 198.593 277.528 198.481 276.352H203.787V275.834C203.787 273.58 202.527 272.18 200.497 272.18C198.299 272.18 196.885 273.608 196.885 275.848C196.885 278.06 198.299 279.488 200.497 279.488ZM198.495 275.218C198.635 274.056 199.321 273.44 200.497 273.44C201.519 273.44 202.191 274.112 202.261 275.218H198.495Z" fill="white"/>
<path d="M205.013 273.51H212.433V272.222H205.013V273.51ZM205.013 277.43H212.433V276.142H205.013V277.43Z" fill="white"/>
<path d="M213.646 282.064H215.2V278.312H215.256C215.746 279.04 216.614 279.488 217.538 279.488C219.47 279.488 220.702 278.046 220.702 275.82C220.702 273.608 219.47 272.18 217.538 272.18C216.572 272.18 215.662 272.628 215.186 273.342H215.13V272.264H213.646V282.064ZM215.144 275.82C215.144 274.336 215.872 273.44 217.104 273.44C218.35 273.44 219.12 274.336 219.12 275.82C219.12 277.318 218.35 278.228 217.104 278.228C215.886 278.228 215.144 277.318 215.144 275.82Z" fill="white"/>
<path d="M224.7 279.488C225.736 279.488 226.604 279.068 227.122 278.312H227.178V279.404H228.662V274.938C228.662 273.174 227.598 272.18 225.68 272.18C223.804 272.18 222.642 273.062 222.516 274.588H224.028C224.126 273.86 224.714 273.44 225.638 273.44C226.576 273.44 227.108 273.832 227.108 274.546C227.108 274.91 226.954 275.022 226.366 275.092C224.798 275.302 224.084 275.414 223.622 275.568C222.712 275.862 222.222 276.506 222.222 277.43C222.222 278.732 223.132 279.488 224.7 279.488ZM223.79 277.374C223.79 276.912 224.014 276.632 224.476 276.478C224.994 276.31 226.492 276.254 227.108 276.086V276.296C227.108 277.416 226.198 278.242 224.994 278.242C224.196 278.242 223.79 277.948 223.79 277.374Z" fill="white"/>
<path d="M232.045 282.064H233.585L237.645 272.264H236.077L233.935 277.654H233.879L231.793 272.264H230.169L233.151 279.404L232.045 282.064Z" fill="white"/>
<path d="M238.648 279.404H240.146V274.56C240.146 273.818 240.37 273.496 240.888 273.496C241.392 273.496 241.616 273.818 241.616 274.56V279.404H243.114V274.56C243.114 273.832 243.338 273.496 243.842 273.496C244.36 273.496 244.584 273.818 244.584 274.56V279.404H246.082V274.56C246.082 273.006 245.522 272.18 244.472 272.18C243.646 272.18 243.058 272.586 242.806 273.356H242.75C242.568 272.586 242.148 272.18 241.532 272.18C240.832 272.18 240.412 272.53 240.132 273.356H240.076V272.264H238.648V279.404Z" fill="white"/>
<path d="M250.864 279.488C252.754 279.488 253.93 278.522 254.126 277.164H252.614C252.46 277.794 251.914 278.228 250.864 278.228C249.66 278.228 248.96 277.528 248.848 276.352H254.154V275.834C254.154 273.58 252.894 272.18 250.864 272.18C248.666 272.18 247.252 273.608 247.252 275.848C247.252 278.06 248.666 279.488 250.864 279.488ZM248.862 275.218C249.002 274.056 249.688 273.44 250.864 273.44C251.886 273.44 252.558 274.112 252.628 275.218H248.862Z" fill="white"/>
<path d="M255.941 279.404H257.495V275.4C257.495 274.098 258.027 273.496 259.175 273.496C260.323 273.496 260.841 274.084 260.841 275.4V279.404H262.395V275.4C262.395 273.286 261.471 272.18 259.805 272.18C258.811 272.18 257.999 272.6 257.481 273.356H257.425V272.264H255.941V279.404Z" fill="white"/>
<path d="M268.703 279.404H270.705V278.172H268.997C268.227 278.172 267.807 277.752 267.807 276.982V273.496H270.705V272.264H267.807V270.164H266.323V271.774C266.323 272.082 266.141 272.264 265.833 272.264H264.125V273.496H266.253V276.954C266.253 278.536 267.121 279.404 268.703 279.404Z" fill="white"/>
<path d="M276.006 279.488C278.022 279.488 279.086 278.746 279.086 277.346C279.086 275.988 278.512 275.47 276.72 275.232L275.656 275.092C274.676 274.966 274.354 274.742 274.354 274.224C274.354 273.636 274.788 273.384 275.824 273.384C276.79 273.384 277.266 273.692 277.42 274.406H278.918C278.806 272.978 277.686 272.18 275.824 272.18C273.962 272.18 272.828 272.978 272.828 274.308C272.828 275.582 273.514 276.212 275.18 276.422L276.174 276.548C277.182 276.674 277.56 276.912 277.56 277.43C277.56 277.99 277.028 278.284 276.006 278.284C274.844 278.284 274.298 277.92 274.158 277.094H272.66C272.758 278.634 273.948 279.488 276.006 279.488Z" fill="white"/>
<path d="M296.309 282.064L290.485 269.324H289.029L294.853 282.064H296.309Z" fill="white"/>
<path d="M88.05 305.404H89.604V301.4C89.604 300.098 90.136 299.496 91.284 299.496C92.432 299.496 92.95 300.084 92.95 301.4V305.404H94.504V301.4C94.504 299.286 93.58 298.18 91.914 298.18C90.948 298.18 90.164 298.586 89.66 299.3H89.604V295.324H88.05V305.404Z" fill="white"/>
<path d="M100.812 305.404H102.814V304.172H101.106C100.336 304.172 99.9165 303.752 99.9165 302.982V299.496H102.814V298.264H99.9165V296.164H98.4325V297.774C98.4325 298.082 98.2505 298.264 97.9425 298.264H96.2345V299.496H98.3625V302.954C98.3625 304.536 99.2305 305.404 100.812 305.404Z" fill="white"/>
<path d="M109.207 305.404H111.209V304.172H109.501C108.731 304.172 108.311 303.752 108.311 302.982V299.496H111.209V298.264H108.311V296.164H106.827V297.774C106.827 298.082 106.645 298.264 106.337 298.264H104.629V299.496H106.757V302.954C106.757 304.536 107.625 305.404 109.207 305.404Z" fill="white"/>
<path d="M112.912 308.064H114.466V304.312H114.522C115.012 305.04 115.88 305.488 116.804 305.488C118.736 305.488 119.968 304.046 119.968 301.82C119.968 299.608 118.736 298.18 116.804 298.18C115.838 298.18 114.928 298.628 114.452 299.342H114.396V298.264H112.912V308.064ZM114.41 301.82C114.41 300.336 115.138 299.44 116.37 299.44C117.616 299.44 118.386 300.336 118.386 301.82C118.386 303.318 117.616 304.228 116.37 304.228C115.152 304.228 114.41 303.318 114.41 301.82Z" fill="white"/>
<path d="M124.904 305.488C126.92 305.488 127.984 304.746 127.984 303.346C127.984 301.988 127.41 301.47 125.618 301.232L124.554 301.092C123.574 300.966 123.252 300.742 123.252 300.224C123.252 299.636 123.686 299.384 124.722 299.384C125.688 299.384 126.164 299.692 126.318 300.406H127.816C127.704 298.978 126.584 298.18 124.722 298.18C122.86 298.18 121.726 298.978 121.726 300.308C121.726 301.582 122.412 302.212 124.078 302.422L125.072 302.548C126.08 302.674 126.458 302.912 126.458 303.43C126.458 303.99 125.926 304.284 124.904 304.284C123.742 304.284 123.196 303.92 123.056 303.094H121.558C121.656 304.634 122.846 305.488 124.904 305.488Z" fill="white"/>
<path d="M133.173 300.854C133.803 300.854 134.237 300.406 134.237 299.776C134.237 299.118 133.803 298.656 133.173 298.656C132.543 298.656 132.095 299.118 132.095 299.776C132.095 300.406 132.543 300.854 133.173 300.854ZM132.095 304.41C132.095 305.04 132.543 305.488 133.173 305.488C133.803 305.488 134.237 305.04 134.237 304.41C134.237 303.752 133.803 303.29 133.173 303.29C132.543 303.29 132.095 303.752 132.095 304.41Z" fill="white"/>
<path d="M137.927 308.064H139.383L145.207 295.324H143.751L137.927 308.064Z" fill="white"/>
<path d="M146.322 308.064H147.778L153.602 295.324H152.146L146.322 308.064Z" fill="white"/>
<path d="M157.544 305.488C158.58 305.488 159.448 305.068 159.966 304.312H160.022V305.404H161.506V300.938C161.506 299.174 160.442 298.18 158.524 298.18C156.648 298.18 155.486 299.062 155.36 300.588H156.872C156.97 299.86 157.558 299.44 158.482 299.44C159.42 299.44 159.952 299.832 159.952 300.546C159.952 300.91 159.798 301.022 159.21 301.092C157.642 301.302 156.928 301.414 156.466 301.568C155.556 301.862 155.066 302.506 155.066 303.43C155.066 304.732 155.976 305.488 157.544 305.488ZM156.634 303.374C156.634 302.912 156.858 302.632 157.32 302.478C157.838 302.31 159.336 302.254 159.952 302.086V302.296C159.952 303.416 159.042 304.242 157.838 304.242C157.04 304.242 156.634 303.948 156.634 303.374Z" fill="white"/>
<path d="M166.737 305.488C168.879 305.488 169.943 304.438 169.943 302.324V298.264H168.389V302.548C168.389 303.668 167.829 304.228 166.737 304.228C165.687 304.228 165.099 303.64 165.099 302.548V298.264H163.545V302.324C163.545 304.438 164.609 305.488 166.737 305.488Z" fill="white"/>
<path d="M176.363 305.404H178.365V304.172H176.657C175.887 304.172 175.467 303.752 175.467 302.982V299.496H178.365V298.264H175.467V296.164H173.983V297.774C173.983 298.082 173.801 298.264 173.493 298.264H171.785V299.496H173.913V302.954C173.913 304.536 174.781 305.404 176.363 305.404Z" fill="white"/>
<path d="M180.39 305.404H181.944V301.4C181.944 300.098 182.476 299.496 183.624 299.496C184.772 299.496 185.29 300.084 185.29 301.4V305.404H186.844V301.4C186.844 299.286 185.92 298.18 184.254 298.18C183.288 298.18 182.504 298.586 182 299.3H181.944V295.324H180.39V305.404Z" fill="white"/>
<path d="M191.934 305.488C192.564 305.488 192.998 305.04 192.998 304.41C192.998 303.752 192.564 303.29 191.934 303.29C191.304 303.29 190.856 303.752 190.856 304.41C190.856 305.04 191.304 305.488 191.934 305.488Z" fill="white"/>
<path d="M200.483 305.488C202.359 305.488 203.577 304.438 203.759 302.884H202.247C202.037 303.85 201.491 304.228 200.483 304.228C199.223 304.228 198.467 303.346 198.467 301.848C198.467 300.364 199.209 299.44 200.483 299.44C201.449 299.44 202.023 299.86 202.177 300.784H203.689C203.549 299.23 202.289 298.18 200.483 298.18C198.341 298.18 196.885 299.664 196.885 301.848C196.885 304.06 198.299 305.488 200.483 305.488Z" fill="white"/>
<path d="M208.709 305.488C210.851 305.488 212.307 304.018 212.307 301.848C212.307 299.664 210.851 298.18 208.709 298.18C206.595 298.18 205.139 299.664 205.139 301.848C205.139 304.018 206.581 305.488 208.709 305.488ZM206.721 301.848C206.721 300.35 207.463 299.44 208.709 299.44C209.969 299.44 210.725 300.35 210.725 301.848C210.725 303.332 209.955 304.228 208.709 304.228C207.463 304.228 206.721 303.332 206.721 301.848Z" fill="white"/>
<path d="M213.968 305.404H215.522V301.4C215.522 300.098 216.054 299.496 217.202 299.496C218.35 299.496 218.868 300.084 218.868 301.4V305.404H220.422V301.4C220.422 299.286 219.498 298.18 217.832 298.18C216.838 298.18 216.026 298.6 215.508 299.356H215.452V298.264H213.968V305.404Z" fill="white"/>
<path d="M226.73 305.404H228.732V304.172H227.024C226.254 304.172 225.834 303.752 225.834 302.982V299.496H228.732V298.264H225.834V296.164H224.35V297.774C224.35 298.082 224.168 298.264 223.86 298.264H222.152V299.496H224.28V302.954C224.28 304.536 225.148 305.404 226.73 305.404Z" fill="white"/>
<path d="M230.617 305.404H237.211V304.172H234.803V298.264H230.617V299.496H233.249V304.172H230.617V305.404ZM232.941 296.206C232.941 296.78 233.333 297.172 233.907 297.172C234.481 297.172 234.873 296.78 234.873 296.206C234.873 295.632 234.481 295.24 233.907 295.24C233.333 295.24 232.941 295.632 232.941 296.206Z" fill="white"/>
<path d="M241.49 305.488C242.526 305.488 243.394 305.068 243.912 304.312H243.968V305.404H245.452V300.938C245.452 299.174 244.388 298.18 242.47 298.18C240.594 298.18 239.432 299.062 239.306 300.588H240.818C240.916 299.86 241.504 299.44 242.428 299.44C243.366 299.44 243.898 299.832 243.898 300.546C243.898 300.91 243.744 301.022 243.156 301.092C241.588 301.302 240.874 301.414 240.412 301.568C239.502 301.862 239.012 302.506 239.012 303.43C239.012 304.732 239.922 305.488 241.49 305.488ZM240.58 303.374C240.58 302.912 240.804 302.632 241.266 302.478C241.784 302.31 243.282 302.254 243.898 302.086V302.296C243.898 303.416 242.988 304.242 241.784 304.242C240.986 304.242 240.58 303.948 240.58 303.374Z" fill="white"/>
<path d="M247.546 305.404H249.1V301.4C249.1 300.098 249.632 299.496 250.78 299.496C251.928 299.496 252.446 300.084 252.446 301.4V305.404H254V301.4C254 299.286 253.076 298.18 251.41 298.18C250.416 298.18 249.604 298.6 249.086 299.356H249.03V298.264H247.546V305.404Z" fill="white"/>
<path d="M260.309 305.404H262.311V304.172H260.603C259.833 304.172 259.413 303.752 259.413 302.982V299.496H262.311V298.264H259.413V296.164H257.929V297.774C257.929 298.082 257.747 298.264 257.439 298.264H255.731V299.496H257.859V302.954C257.859 304.536 258.727 305.404 260.309 305.404Z" fill="white"/>
<path d="M267.485 305.488C268.115 305.488 268.549 305.04 268.549 304.41C268.549 303.752 268.115 303.29 267.485 303.29C266.855 303.29 266.407 303.752 266.407 304.41C266.407 305.04 266.855 305.488 267.485 305.488Z" fill="white"/>
<path d="M276.034 305.488C277.91 305.488 279.128 304.438 279.31 302.884H277.798C277.588 303.85 277.042 304.228 276.034 304.228C274.774 304.228 274.018 303.346 274.018 301.848C274.018 300.364 274.76 299.44 276.034 299.44C277 299.44 277.574 299.86 277.728 300.784H279.24C279.1 299.23 277.84 298.18 276.034 298.18C273.892 298.18 272.436 299.664 272.436 301.848C272.436 304.06 273.85 305.488 276.034 305.488Z" fill="white"/>
<path d="M284.26 305.488C286.402 305.488 287.858 304.018 287.858 301.848C287.858 299.664 286.402 298.18 284.26 298.18C282.146 298.18 280.69 299.664 280.69 301.848C280.69 304.018 282.132 305.488 284.26 305.488ZM282.272 301.848C282.272 300.35 283.014 299.44 284.26 299.44C285.52 299.44 286.276 300.35 286.276 301.848C286.276 303.332 285.506 304.228 284.26 304.228C283.014 304.228 282.272 303.332 282.272 301.848Z" fill="white"/>
<path d="M289.015 305.404H290.513V300.56C290.513 299.818 290.737 299.496 291.255 299.496C291.759 299.496 291.983 299.818 291.983 300.56V305.404H293.481V300.56C293.481 299.832 293.705 299.496 294.209 299.496C294.727 299.496 294.951 299.818 294.951 300.56V305.404H296.449V300.56C296.449 299.006 295.889 298.18 294.839 298.18C294.013 298.18 293.425 298.586 293.173 299.356H293.117C292.935 298.586 292.515 298.18 291.899 298.18C291.199 298.18 290.779 298.53 290.499 299.356H290.443V298.264H289.015V305.404Z" fill="white"/>
<path d="M297.423 308.064H298.879L304.703 295.324H303.247L297.423 308.064Z" fill="white"/>
<path d="M309.612 305.488C311.488 305.488 312.706 304.438 312.888 302.884H311.376C311.166 303.85 310.62 304.228 309.612 304.228C308.352 304.228 307.596 303.346 307.596 301.848C307.596 300.364 308.338 299.44 309.612 299.44C310.578 299.44 311.152 299.86 311.306 300.784H312.818C312.678 299.23 311.418 298.18 309.612 298.18C307.47 298.18 306.014 299.664 306.014 301.848C306.014 304.06 307.428 305.488 309.612 305.488Z" fill="white"/>
<path d="M317.838 305.488C319.98 305.488 321.436 304.018 321.436 301.848C321.436 299.664 319.98 298.18 317.838 298.18C315.724 298.18 314.268 299.664 314.268 301.848C314.268 304.018 315.71 305.488 317.838 305.488ZM315.85 301.848C315.85 300.35 316.592 299.44 317.838 299.44C319.098 299.44 319.854 300.35 319.854 301.848C319.854 303.332 319.084 304.228 317.838 304.228C316.592 304.228 315.85 303.332 315.85 301.848Z" fill="white"/>
<path d="M323.097 305.404H324.651V301.4C324.651 300.098 325.183 299.496 326.331 299.496C327.479 299.496 327.997 300.084 327.997 301.4V305.404H329.551V301.4C329.551 299.286 328.627 298.18 326.961 298.18C325.967 298.18 325.155 298.6 324.637 299.356H324.581V298.264H323.097V305.404Z" fill="white"/>
<path d="M331.491 305.404H333.045V301.4C333.045 300.098 333.577 299.496 334.725 299.496C335.873 299.496 336.391 300.084 336.391 301.4V305.404H337.945V301.4C337.945 299.286 337.021 298.18 335.355 298.18C334.361 298.18 333.549 298.6 333.031 299.356H332.975V298.264H331.491V305.404Z" fill="white"/>
<path d="M343.204 305.488C345.094 305.488 346.27 304.522 346.466 303.164H344.954C344.8 303.794 344.254 304.228 343.204 304.228C342 304.228 341.3 303.528 341.188 302.352H346.494V301.834C346.494 299.58 345.234 298.18 343.204 298.18C341.006 298.18 339.592 299.608 339.592 301.848C339.592 304.06 341.006 305.488 343.204 305.488ZM341.202 301.218C341.342 300.056 342.028 299.44 343.204 299.44C344.226 299.44 344.898 300.112 344.968 301.218H341.202Z" fill="white"/>
<path d="M351.584 305.488C353.46 305.488 354.678 304.438 354.86 302.884H353.348C353.138 303.85 352.592 304.228 351.584 304.228C350.324 304.228 349.568 303.346 349.568 301.848C349.568 300.364 350.31 299.44 351.584 299.44C352.55 299.44 353.124 299.86 353.278 300.784H354.79C354.65 299.23 353.39 298.18 351.584 298.18C349.442 298.18 347.986 299.664 347.986 301.848C347.986 304.06 349.4 305.488 351.584 305.488Z" fill="white"/>
<path d="M361.043 305.404H363.045V304.172H361.337C360.567 304.172 360.147 303.752 360.147 302.982V299.496H363.045V298.264H360.147V296.164H358.663V297.774C358.663 298.082 358.481 298.264 358.173 298.264H356.465V299.496H358.593V302.954C358.593 304.536 359.461 305.404 361.043 305.404Z" fill="white"/>
<path d="M364.579 308.064H366.035L371.859 295.324H370.404L364.579 308.064Z" fill="white"/>
<path d="M377.832 305.404H379.834V304.172H378.126C377.356 304.172 376.936 303.752 376.936 302.982V299.496H379.834V298.264H376.936V296.164H375.452V297.774C375.452 298.082 375.27 298.264 374.962 298.264H373.254V299.496H375.382V302.954C375.382 304.536 376.25 305.404 377.832 305.404Z" fill="white"/>
<path d="M384.995 305.488C387.137 305.488 388.593 304.018 388.593 301.848C388.593 299.664 387.137 298.18 384.995 298.18C382.881 298.18 381.425 299.664 381.425 301.848C381.425 304.018 382.867 305.488 384.995 305.488ZM383.007 301.848C383.007 300.35 383.749 299.44 384.995 299.44C386.255 299.44 387.011 300.35 387.011 301.848C387.011 303.332 386.241 304.228 384.995 304.228C383.749 304.228 383.007 303.332 383.007 301.848Z" fill="white"/>
<path d="M390.309 305.404H391.863V303.206L392.955 302.114H393.011L395.335 305.404H397.057L394.047 301.148V301.092L396.917 298.264H395.195L391.919 301.358H391.863V295.324H390.309V305.404Z" fill="white"/>
<path d="M401.966 305.488C403.856 305.488 405.032 304.522 405.228 303.164H403.716C403.562 303.794 403.016 304.228 401.966 304.228C400.762 304.228 400.062 303.528 399.95 302.352H405.256V301.834C405.256 299.58 403.996 298.18 401.966 298.18C399.768 298.18 398.354 299.608 398.354 301.848C398.354 304.06 399.768 305.488 401.966 305.488ZM399.964 301.218C400.104 300.056 400.79 299.44 401.966 299.44C402.988 299.44 403.66 300.112 403.73 301.218H399.964Z" fill="white"/>
<path d="M407.042 305.404H408.596V301.4C408.596 300.098 409.128 299.496 410.276 299.496C411.424 299.496 411.942 300.084 411.942 301.4V305.404H413.496V301.4C413.496 299.286 412.572 298.18 410.906 298.18C409.912 298.18 409.1 298.6 408.582 299.356H408.526V298.264H407.042V305.404Z" fill="white"/>
<path d="M87.56 360.064H89.016L94.84 347.324H93.384L87.56 360.064Z" fill="white"/>
<path d="M95.9545 360.064H97.4105L103.234 347.324H101.778L95.9545 360.064Z" fill="white"/>
<path d="M113.206 357.404H114.816V353.568H116.454C117.658 353.568 117.924 353.862 118.106 355.388L118.134 355.626C118.246 356.522 118.316 356.956 118.414 357.404H120.066C119.912 356.9 119.744 356.13 119.66 355.374L119.632 355.136C119.45 353.624 119.226 353.246 118.358 352.938V352.882C119.352 352.448 119.926 351.566 119.926 350.446C119.926 348.584 118.736 347.604 116.454 347.604H113.206V357.404ZM114.816 352.196V348.976H116.454C117.7 348.976 118.302 349.494 118.302 350.586C118.302 351.678 117.7 352.196 116.454 352.196H114.816Z" fill="white"/>
<path d="M124.946 357.488C126.836 357.488 128.012 356.522 128.208 355.164H126.696C126.542 355.794 125.996 356.228 124.946 356.228C123.742 356.228 123.042 355.528 122.93 354.352H128.236V353.834C128.236 351.58 126.976 350.18 124.946 350.18C122.748 350.18 121.334 351.608 121.334 353.848C121.334 356.06 122.748 357.488 124.946 357.488ZM122.944 353.218C123.084 352.056 123.77 351.44 124.946 351.44C125.968 351.44 126.64 352.112 126.71 353.218H122.944Z" fill="white"/>
<path d="M133.299 357.488C135.315 357.488 136.379 356.746 136.379 355.346C136.379 353.988 135.805 353.47 134.013 353.232L132.949 353.092C131.969 352.966 131.647 352.742 131.647 352.224C131.647 351.636 132.081 351.384 133.117 351.384C134.083 351.384 134.559 351.692 134.713 352.406H136.211C136.099 350.978 134.979 350.18 133.117 350.18C131.255 350.18 130.121 350.978 130.121 352.308C130.121 353.582 130.807 354.212 132.473 354.422L133.467 354.548C134.475 354.674 134.853 354.912 134.853 355.43C134.853 355.99 134.321 356.284 133.299 356.284C132.137 356.284 131.591 355.92 131.451 355.094H129.953C130.051 356.634 131.241 357.488 133.299 357.488Z" fill="white"/>
<path d="M138.095 360.064H139.649V356.312H139.705C140.195 357.04 141.063 357.488 141.987 357.488C143.919 357.488 145.151 356.046 145.151 353.82C145.151 351.608 143.919 350.18 141.987 350.18C141.021 350.18 140.111 350.628 139.635 351.342H139.579V350.264H138.095V360.064ZM139.593 353.82C139.593 352.336 140.321 351.44 141.553 351.44C142.799 351.44 143.569 352.336 143.569 353.82C143.569 355.318 142.799 356.228 141.553 356.228C140.335 356.228 139.593 355.318 139.593 353.82Z" fill="white"/>
<path d="M149.948 357.488C152.09 357.488 153.546 356.018 153.546 353.848C153.546 351.664 152.09 350.18 149.948 350.18C147.834 350.18 146.378 351.664 146.378 353.848C146.378 356.018 147.82 357.488 149.948 357.488ZM147.96 353.848C147.96 352.35 148.702 351.44 149.948 351.44C151.208 351.44 151.964 352.35 151.964 353.848C151.964 355.332 151.194 356.228 149.948 356.228C148.702 356.228 147.96 355.332 147.96 353.848Z" fill="white"/>
<path d="M155.206 357.404H156.76V353.4C156.76 352.098 157.292 351.496 158.44 351.496C159.588 351.496 160.106 352.084 160.106 353.4V357.404H161.66V353.4C161.66 351.286 160.736 350.18 159.07 350.18C158.076 350.18 157.264 350.6 156.746 351.356H156.69V350.264H155.206V357.404Z" fill="white"/>
<path d="M166.877 357.488C168.893 357.488 169.957 356.746 169.957 355.346C169.957 353.988 169.383 353.47 167.591 353.232L166.527 353.092C165.547 352.966 165.225 352.742 165.225 352.224C165.225 351.636 165.659 351.384 166.695 351.384C167.661 351.384 168.137 351.692 168.291 352.406H169.789C169.677 350.978 168.557 350.18 166.695 350.18C164.833 350.18 163.699 350.978 163.699 352.308C163.699 353.582 164.385 354.212 166.051 354.422L167.045 354.548C168.053 354.674 168.431 354.912 168.431 355.43C168.431 355.99 167.899 356.284 166.877 356.284C165.715 356.284 165.169 355.92 165.029 355.094H163.531C163.629 356.634 164.819 357.488 166.877 357.488Z" fill="white"/>
<path d="M175.313 357.488C177.203 357.488 178.379 356.522 178.575 355.164H177.063C176.909 355.794 176.363 356.228 175.313 356.228C174.109 356.228 173.409 355.528 173.297 354.352H178.603V353.834C178.603 351.58 177.343 350.18 175.313 350.18C173.115 350.18 171.701 351.608 171.701 353.848C171.701 356.06 173.115 357.488 175.313 357.488ZM173.311 353.218C173.451 352.056 174.137 351.44 175.313 351.44C176.335 351.44 177.007 352.112 177.077 353.218H173.311Z" fill="white"/>
<path d="M183.54 352.854C184.17 352.854 184.604 352.406 184.604 351.776C184.604 351.118 184.17 350.656 183.54 350.656C182.91 350.656 182.462 351.118 182.462 351.776C182.462 352.406 182.91 352.854 183.54 352.854ZM182.462 356.41C182.462 357.04 182.91 357.488 183.54 357.488C184.17 357.488 184.604 357.04 184.604 356.41C184.604 355.752 184.17 355.29 183.54 355.29C182.91 355.29 182.462 355.752 182.462 356.41Z" fill="white"/>
<path d="M92.992 386.064H94.35V384.832H92.992C92.502 384.832 92.222 384.552 92.222 384.062V381.164C92.222 380.296 91.746 379.68 90.878 379.442V379.386C91.746 379.148 92.222 378.532 92.222 377.664V374.766C92.222 374.276 92.502 373.996 92.992 373.996H94.35V372.764H92.992C91.592 372.764 90.738 373.534 90.738 374.934V377.958C90.738 378.448 90.458 378.728 89.968 378.728H88.484V380.1H89.968C90.458 380.1 90.738 380.38 90.738 380.87V383.894C90.738 385.294 91.592 386.064 92.992 386.064Z" fill="white"/>
<path d="M87.5599 360.064H89.0159L94.8399 347.324H93.3839L87.5599 360.064Z" fill="#7B8794"/>
<path d="M95.9545 360.064H97.4105L103.234 347.324H101.778L95.9545 360.064Z" fill="#7B8794"/>
<path d="M113.206 357.404H114.816V353.568H116.454C117.658 353.568 117.924 353.862 118.106 355.388L118.134 355.626C118.246 356.522 118.316 356.956 118.414 357.404H120.066C119.912 356.9 119.744 356.13 119.66 355.374L119.632 355.136C119.45 353.624 119.226 353.246 118.358 352.938V352.882C119.352 352.448 119.926 351.566 119.926 350.446C119.926 348.584 118.736 347.604 116.454 347.604H113.206V357.404ZM114.816 352.196V348.976H116.454C117.7 348.976 118.302 349.494 118.302 350.586C118.302 351.678 117.7 352.196 116.454 352.196H114.816Z" fill="#7B8794"/>
<path d="M124.946 357.488C126.836 357.488 128.012 356.522 128.208 355.164H126.696C126.542 355.794 125.996 356.228 124.946 356.228C123.742 356.228 123.042 355.528 122.93 354.352H128.236V353.834C128.236 351.58 126.976 350.18 124.946 350.18C122.748 350.18 121.334 351.608 121.334 353.848C121.334 356.06 122.748 357.488 124.946 357.488ZM122.944 353.218C123.084 352.056 123.77 351.44 124.946 351.44C125.968 351.44 126.64 352.112 126.71 353.218H122.944Z" fill="#7B8794"/>
<path d="M133.299 357.488C135.315 357.488 136.379 356.746 136.379 355.346C136.379 353.988 135.805 353.47 134.013 353.232L132.949 353.092C131.969 352.966 131.647 352.742 131.647 352.224C131.647 351.636 132.081 351.384 133.117 351.384C134.083 351.384 134.559 351.692 134.713 352.406H136.211C136.099 350.978 134.979 350.18 133.117 350.18C131.255 350.18 130.121 350.978 130.121 352.308C130.121 353.582 130.807 354.212 132.473 354.422L133.467 354.548C134.475 354.674 134.853 354.912 134.853 355.43C134.853 355.99 134.321 356.284 133.299 356.284C132.137 356.284 131.591 355.92 131.451 355.094H129.953C130.051 356.634 131.241 357.488 133.299 357.488Z" fill="#7B8794"/>
<path d="M138.095 360.064H139.649V356.312H139.705C140.195 357.04 141.063 357.488 141.987 357.488C143.919 357.488 145.151 356.046 145.151 353.82C145.151 351.608 143.919 350.18 141.987 350.18C141.021 350.18 140.111 350.628 139.635 351.342H139.579V350.264H138.095V360.064ZM139.593 353.82C139.593 352.336 140.321 351.44 141.553 351.44C142.799 351.44 143.569 352.336 143.569 353.82C143.569 355.318 142.799 356.228 141.553 356.228C140.335 356.228 139.593 355.318 139.593 353.82Z" fill="#7B8794"/>
<path d="M149.948 357.488C152.09 357.488 153.546 356.018 153.546 353.848C153.546 351.664 152.09 350.18 149.948 350.18C147.834 350.18 146.378 351.664 146.378 353.848C146.378 356.018 147.82 357.488 149.948 357.488ZM147.96 353.848C147.96 352.35 148.702 351.44 149.948 351.44C151.208 351.44 151.964 352.35 151.964 353.848C151.964 355.332 151.194 356.228 149.948 356.228C148.702 356.228 147.96 355.332 147.96 353.848Z" fill="#7B8794"/>
<path d="M155.206 357.404H156.76V353.4C156.76 352.098 157.292 351.496 158.44 351.496C159.588 351.496 160.106 352.084 160.106 353.4V357.404H161.66V353.4C161.66 351.286 160.736 350.18 159.07 350.18C158.076 350.18 157.264 350.6 156.746 351.356H156.69V350.264H155.206V357.404Z" fill="#7B8794"/>
<path d="M166.877 357.488C168.893 357.488 169.957 356.746 169.957 355.346C169.957 353.988 169.383 353.47 167.591 353.232L166.527 353.092C165.547 352.966 165.225 352.742 165.225 352.224C165.225 351.636 165.659 351.384 166.695 351.384C167.661 351.384 168.137 351.692 168.291 352.406H169.789C169.677 350.978 168.557 350.18 166.695 350.18C164.833 350.18 163.699 350.978 163.699 352.308C163.699 353.582 164.385 354.212 166.051 354.422L167.045 354.548C168.053 354.674 168.431 354.912 168.431 355.43C168.431 355.99 167.899 356.284 166.877 356.284C165.715 356.284 165.169 355.92 165.029 355.094H163.531C163.629 356.634 164.819 357.488 166.877 357.488Z" fill="#7B8794"/>
<path d="M175.313 357.488C177.203 357.488 178.379 356.522 178.575 355.164H177.063C176.909 355.794 176.363 356.228 175.313 356.228C174.109 356.228 173.409 355.528 173.297 354.352H178.603V353.834C178.603 351.58 177.343 350.18 175.313 350.18C173.115 350.18 171.701 351.608 171.701 353.848C171.701 356.06 173.115 357.488 175.313 357.488ZM173.311 353.218C173.451 352.056 174.137 351.44 175.313 351.44C176.335 351.44 177.007 352.112 177.077 353.218H173.311Z" fill="#7B8794"/>
<path d="M183.54 352.854C184.17 352.854 184.604 352.406 184.604 351.776C184.604 351.118 184.17 350.656 183.54 350.656C182.91 350.656 182.462 351.118 182.462 351.776C182.462 352.406 182.91 352.854 183.54 352.854ZM182.462 356.41C182.462 357.04 182.91 357.488 183.54 357.488C184.17 357.488 184.604 357.04 184.604 356.41C184.604 355.752 184.17 355.29 183.54 355.29C182.91 355.29 182.462 355.752 182.462 356.41Z" fill="#7B8794"/>
<path opacity="0.3" d="M61.5855 149.404H68.3055V148.032H66.0375V139.604H64.4695V140.682C64.4695 140.99 64.2875 141.172 63.9795 141.172H61.5855V142.544H64.3995V148.032H61.5855V149.404ZM61.3055 175.404H68.3895V174.032H64.3435V173.976L65.8695 172.31C67.5075 170.518 67.9695 169.636 67.9695 168.348C67.9695 166.598 66.7935 165.52 64.8755 165.52C62.7895 165.52 61.5575 166.654 61.4455 168.698H63.0275C63.1395 167.424 63.6855 166.864 64.8755 166.864C65.8555 166.864 66.3595 167.368 66.3595 168.348C66.3595 169.314 65.9815 170 64.7075 171.414L61.3055 175.348V175.404ZM64.9735 201.488C67.0595 201.488 68.3755 200.298 68.3755 198.38C68.3755 196.602 67.4375 195.566 65.6315 195.328V195.272L68.3755 191.66V191.604H61.6275V192.976H65.5755V193.032L63.6015 195.706V196.602H64.5255C66.0655 196.602 66.7655 197.162 66.7655 198.38C66.7655 199.458 66.0795 200.144 64.9735 200.144C63.7135 200.144 63.0695 199.528 62.9295 198.226H61.3475C61.5295 200.354 62.8035 201.488 64.9735 201.488ZM65.9815 227.404H67.5915V225.36H68.7255V223.988H67.5915V217.604H65.5335L60.9555 224.464V225.36H65.9815V227.404ZM62.9855 223.988V223.932L65.9815 219.242H66.0375V223.988H62.9855ZM64.9175 253.488C67.0735 253.488 68.3475 252.242 68.3475 250.128C68.3475 248.098 67.2275 246.866 65.3935 246.866C64.6375 246.866 63.8535 247.09 63.3215 247.454H63.2655L63.4195 244.976H67.9275V243.604H62.1315L61.7815 248.91L62.7895 249.064C63.2795 248.49 63.9655 248.21 64.8895 248.21C66.0935 248.21 66.7375 248.868 66.7375 250.128C66.7375 251.416 66.0935 252.144 64.9175 252.144C63.6995 252.144 63.0415 251.612 62.9015 250.506H61.3195C61.5015 252.438 62.7755 253.488 64.9175 253.488ZM64.8055 279.488C67.0595 279.488 68.3755 278.242 68.3755 276.128C68.3755 274.112 67.1435 272.796 65.2815 272.796C64.7775 272.796 64.2455 272.922 63.9375 273.118L63.8955 273.076L66.3315 269.604H64.5535L62.5235 272.488C61.6415 273.734 61.2355 274.882 61.2355 276.128C61.2355 278.242 62.5515 279.488 64.8055 279.488ZM62.8455 276.128C62.8455 274.868 63.5735 274.112 64.8055 274.112C66.0655 274.112 66.7655 274.84 66.7655 276.128C66.7655 277.416 66.0655 278.144 64.8055 278.144C63.5455 278.144 62.8455 277.416 62.8455 276.128ZM62.9015 305.404H64.5955L68.5155 295.66V295.604H61.3755V296.976H66.3175V297.032L62.9015 305.348V305.404ZM64.8055 331.488C67.1155 331.488 68.3895 330.508 68.3895 328.758C68.3895 327.568 67.7315 326.672 66.7375 326.392V326.336C67.5915 325.93 68.0535 325.23 68.0535 324.152C68.0535 322.542 66.7935 321.52 64.8055 321.52C62.8175 321.52 61.5575 322.542 61.5575 324.152C61.5575 325.23 62.0195 325.93 62.8735 326.336V326.392C61.8795 326.672 61.2215 327.568 61.2215 328.758C61.2215 330.508 62.4955 331.488 64.8055 331.488ZM62.8315 328.576C62.8315 327.596 63.4755 327.12 64.8055 327.12C66.1355 327.12 66.7795 327.596 66.7795 328.576C66.7795 329.626 66.1215 330.144 64.8055 330.144C63.4895 330.144 62.8315 329.626 62.8315 328.576ZM63.1675 324.362C63.1675 323.396 63.7415 322.864 64.8055 322.864C65.8695 322.864 66.4435 323.396 66.4435 324.362C66.4435 325.272 65.8695 325.776 64.8055 325.776C63.7415 325.776 63.1675 325.272 63.1675 324.362ZM64.8055 347.52C62.5515 347.52 61.2355 348.766 61.2355 350.88C61.2355 352.896 62.4675 354.212 64.3295 354.212C64.8335 354.212 65.3655 354.086 65.6735 353.89L65.7155 353.932L63.2795 357.404H65.0575L67.0875 354.52C67.9695 353.274 68.3755 352.126 68.3755 350.88C68.3755 348.766 67.0595 347.52 64.8055 347.52ZM62.8455 350.88C62.8455 349.592 63.5455 348.864 64.8055 348.864C66.0655 348.864 66.7655 349.592 66.7655 350.88C66.7655 352.14 66.0375 352.896 64.8055 352.896C63.5455 352.896 62.8455 352.168 62.8455 350.88ZM53.1909 383.404H59.9109V382.032H57.6429V373.604H56.0749V374.682C56.0749 374.99 55.8929 375.172 55.5849 375.172H53.1909V376.544H56.0049V382.032H53.1909V383.404ZM64.8055 383.488C67.1855 383.488 68.5155 381.71 68.5155 378.546C68.5155 375.326 67.1855 373.52 64.8055 373.52C62.4395 373.52 61.0955 375.34 61.0955 378.546C61.0955 381.71 62.4255 383.488 64.8055 383.488ZM62.7335 378.546C62.7335 376.054 63.3915 374.892 64.8055 374.892C66.2195 374.892 66.8775 376.054 66.8775 378.546C66.8775 380.996 66.2335 382.116 64.8055 382.116C63.3915 382.116 62.7335 380.982 62.7335 378.546ZM53.1909 409.404H59.9109V408.032H57.6429V399.604H56.0749V400.682C56.0749 400.99 55.8929 401.172 55.5849 401.172H53.1909V402.544H56.0049V408.032H53.1909V409.404ZM61.5855 409.404H68.3055V408.032H66.0375V399.604H64.4695V400.682C64.4695 400.99 64.2875 401.172 63.9795 401.172H61.5855V402.544H64.3995V408.032H61.5855V409.404ZM53.1909 435.404H59.9109V434.032H57.6429V425.604H56.0749V426.682C56.0749 426.99 55.8929 427.172 55.5849 427.172H53.1909V428.544H56.0049V434.032H53.1909V435.404ZM61.3055 435.404H68.3895V434.032H64.3435V433.976L65.8695 432.31C67.5075 430.518 67.9695 429.636 67.9695 428.348C67.9695 426.598 66.7935 425.52 64.8755 425.52C62.7895 425.52 61.5575 426.654 61.4455 428.698H63.0275C63.1395 427.424 63.6855 426.864 64.8755 426.864C65.8555 426.864 66.3595 427.368 66.3595 428.348C66.3595 429.314 65.9815 430 64.7075 431.414L61.3055 435.348V435.404ZM53.1909 461.404H59.9109V460.032H57.6429V451.604H56.0749V452.682C56.0749 452.99 55.8929 453.172 55.5849 453.172H53.1909V454.544H56.0049V460.032H53.1909V461.404ZM61.3055 461.404H68.3895V460.032H64.3435V459.976L65.8695 458.31C67.5075 456.518 67.9695 455.636 67.9695 454.348C67.9695 452.598 66.7935 451.52 64.8755 451.52C62.7895 451.52 61.5575 452.654 61.4455 454.698H63.0275C63.1395 453.424 63.6855 452.864 64.8755 452.864C65.8555 452.864 66.3595 453.368 66.3595 454.348C66.3595 455.314 65.9815 456 64.7075 457.414L61.3055 461.348V461.404ZM53.1909 487.404H59.9109V486.032H57.6429V477.604H56.0749V478.682C56.0749 478.99 55.8929 479.172 55.5849 479.172H53.1909V480.544H56.0049V486.032H53.1909V487.404ZM65.9815 487.404H67.5915V485.36H68.7255V483.988H67.5915V477.604H65.5335L60.9555 484.464V485.36H65.9815V487.404ZM62.9855 483.988V483.932L65.9815 479.242H66.0375V483.988H62.9855ZM53.1909 513.404H59.9109V512.032H57.6429V503.604H56.0749V504.682C56.0749 504.99 55.8929 505.172 55.5849 505.172H53.1909V506.544H56.0049V512.032H53.1909V513.404ZM64.9175 513.488C67.0735 513.488 68.3475 512.242 68.3475 510.128C68.3475 508.098 67.2275 506.866 65.3935 506.866C64.6375 506.866 63.8535 507.09 63.3215 507.454H63.2655L63.4195 504.976H67.9275V503.604H62.1315L61.7815 508.91L62.7895 509.064C63.2795 508.49 63.9655 508.21 64.8895 508.21C66.0935 508.21 66.7375 508.868 66.7375 510.128C66.7375 511.416 66.0935 512.144 64.9175 512.144C63.6995 512.144 63.0415 511.612 62.9015 510.506H61.3195C61.5015 512.438 62.7755 513.488 64.9175 513.488Z" fill="white"/>
<path d="M260.713 229.704H262.071V228.472H260.713C260.223 228.472 259.943 228.192 259.943 227.702V224.804C259.943 223.936 259.467 223.32 258.599 223.082V223.026C259.467 222.788 259.943 222.172 259.943 221.304V218.406C259.943 217.916 260.223 217.636 260.713 217.636H262.071V216.404H260.713C259.313 216.404 258.459 217.174 258.459 218.574V221.598C258.459 222.088 258.179 222.368 257.689 222.368H256.205V223.74H257.689C258.179 223.74 258.459 224.02 258.459 224.51V227.534C258.459 228.934 259.313 229.704 260.713 229.704Z" fill="#ED3456"/>
<path d="M267.469 227.128C269.345 227.128 270.563 226.078 270.745 224.524H269.233C269.023 225.49 268.477 225.868 267.469 225.868C266.209 225.868 265.453 224.986 265.453 223.488C265.453 222.004 266.195 221.08 267.469 221.08C268.435 221.08 269.009 221.5 269.163 222.424H270.675C270.535 220.87 269.275 219.82 267.469 219.82C265.327 219.82 263.871 221.304 263.871 223.488C263.871 225.7 265.285 227.128 267.469 227.128Z" fill="#ED3456"/>
<path d="M272.532 227.044H279.126V225.812H276.718V216.964H272.532V218.196H275.164V225.812H272.532V227.044Z" fill="#ED3456"/>
<path d="M280.814 227.044H287.408V225.812H285V219.904H280.814V221.136H283.446V225.812H280.814V227.044ZM283.138 217.846C283.138 218.42 283.53 218.812 284.104 218.812C284.678 218.812 285.07 218.42 285.07 217.846C285.07 217.272 284.678 216.88 284.104 216.88C283.53 216.88 283.138 217.272 283.138 217.846Z" fill="#ED3456"/>
<path d="M292.667 227.128C294.557 227.128 295.733 226.162 295.929 224.804H294.417C294.263 225.434 293.717 225.868 292.667 225.868C291.463 225.868 290.763 225.168 290.651 223.992H295.957V223.474C295.957 221.22 294.697 219.82 292.667 219.82C290.469 219.82 289.055 221.248 289.055 223.488C289.055 225.7 290.469 227.128 292.667 227.128ZM290.665 222.858C290.805 221.696 291.491 221.08 292.667 221.08C293.689 221.08 294.361 221.752 294.431 222.858H290.665Z" fill="#ED3456"/>
<path d="M297.743 227.044H299.297V223.04C299.297 221.738 299.829 221.136 300.977 221.136C302.125 221.136 302.643 221.724 302.643 223.04V227.044H304.197V223.04C304.197 220.926 303.273 219.82 301.607 219.82C300.613 219.82 299.801 220.24 299.283 220.996H299.227V219.904H297.743V227.044Z" fill="#ED3456"/>
<path d="M310.506 227.044H312.508V225.812H310.8C310.03 225.812 309.61 225.392 309.61 224.622V221.136H312.508V219.904H309.61V217.804H308.126V219.414C308.126 219.722 307.944 219.904 307.636 219.904H305.928V221.136H308.056V224.594C308.056 226.176 308.924 227.044 310.506 227.044Z" fill="#ED3456"/>
<path d="M314.462 228.696H320.902V227.464H314.462V228.696Z" fill="#ED3456"/>
<path d="M322.787 227.044H329.381V225.812H326.973V219.904H322.787V221.136H325.419V225.812H322.787V227.044ZM325.111 217.846C325.111 218.42 325.503 218.812 326.077 218.812C326.651 218.812 327.043 218.42 327.043 217.846C327.043 217.272 326.651 216.88 326.077 216.88C325.503 216.88 325.111 217.272 325.111 217.846Z" fill="#ED3456"/>
<path d="M334.051 227.128C335.017 227.128 335.927 226.68 336.403 225.966H336.459V227.044H337.943V216.964H336.389V220.996H336.333C335.843 220.268 334.975 219.82 334.051 219.82C332.119 219.82 330.887 221.262 330.887 223.488C330.887 225.7 332.119 227.128 334.051 227.128ZM332.469 223.488C332.469 221.99 333.239 221.08 334.485 221.08C335.703 221.08 336.445 221.99 336.445 223.488C336.445 224.972 335.717 225.868 334.485 225.868C333.239 225.868 332.469 224.972 332.469 223.488Z" fill="#ED3456"/>
<path d="M341.074 229.704C342.474 229.704 343.328 228.934 343.328 227.534V224.51C343.328 224.02 343.608 223.74 344.098 223.74H345.582V222.368H344.098C343.608 222.368 343.328 222.088 343.328 221.598V218.574C343.328 217.174 342.474 216.404 341.074 216.404H339.716V217.636H341.074C341.564 217.636 341.844 217.916 341.844 218.406V221.304C341.844 222.172 342.32 222.788 343.188 223.026V223.082C342.32 223.32 341.844 223.936 341.844 224.804V227.702C341.844 228.192 341.564 228.472 341.074 228.472H339.716V229.704H341.074Z" fill="#ED3456"/>
<path d="M294.291 255.704H295.649V254.472H294.291C293.801 254.472 293.521 254.192 293.521 253.702V250.804C293.521 249.936 293.045 249.32 292.177 249.082V249.026C293.045 248.788 293.521 248.172 293.521 247.304V244.406C293.521 243.916 293.801 243.636 294.291 243.636H295.649V242.404H294.291C292.891 242.404 292.037 243.174 292.037 244.574V247.598C292.037 248.088 291.757 248.368 291.267 248.368H289.783V249.74H291.267C291.757 249.74 292.037 250.02 292.037 250.51V253.534C292.037 254.934 292.891 255.704 294.291 255.704Z" fill="#ED3456"/>
<path d="M301.047 253.128C302.923 253.128 304.141 252.078 304.323 250.524H302.811C302.601 251.49 302.055 251.868 301.047 251.868C299.787 251.868 299.031 250.986 299.031 249.488C299.031 248.004 299.773 247.08 301.047 247.08C302.013 247.08 302.587 247.5 302.741 248.424H304.253C304.113 246.87 302.853 245.82 301.047 245.82C298.905 245.82 297.449 247.304 297.449 249.488C297.449 251.7 298.863 253.128 301.047 253.128Z" fill="#ED3456"/>
<path d="M306.11 253.044H312.704V251.812H310.296V242.964H306.11V244.196H308.742V251.812H306.11V253.044Z" fill="#ED3456"/>
<path d="M314.392 253.044H320.986V251.812H318.578V245.904H314.392V247.136H317.024V251.812H314.392V253.044ZM316.716 243.846C316.716 244.42 317.108 244.812 317.682 244.812C318.256 244.812 318.648 244.42 318.648 243.846C318.648 243.272 318.256 242.88 317.682 242.88C317.108 242.88 316.716 243.272 316.716 243.846Z" fill="#ED3456"/>
<path d="M326.245 253.128C328.135 253.128 329.311 252.162 329.507 250.804H327.995C327.841 251.434 327.295 251.868 326.245 251.868C325.041 251.868 324.341 251.168 324.229 249.992H329.535V249.474C329.535 247.22 328.275 245.82 326.245 245.82C324.047 245.82 322.633 247.248 322.633 249.488C322.633 251.7 324.047 253.128 326.245 253.128ZM324.243 248.858C324.383 247.696 325.069 247.08 326.245 247.08C327.267 247.08 327.939 247.752 328.009 248.858H324.243Z" fill="#ED3456"/>
<path d="M331.321 253.044H332.875V249.04C332.875 247.738 333.407 247.136 334.555 247.136C335.703 247.136 336.221 247.724 336.221 249.04V253.044H337.775V249.04C337.775 246.926 336.851 245.82 335.185 245.82C334.191 245.82 333.379 246.24 332.861 246.996H332.805V245.904H331.321V253.044Z" fill="#ED3456"/>
<path d="M344.084 253.044H346.086V251.812H344.378C343.608 251.812 343.188 251.392 343.188 250.622V247.136H346.086V245.904H343.188V243.804H341.704V245.414C341.704 245.722 341.522 245.904 341.214 245.904H339.506V247.136H341.634V250.594C341.634 252.176 342.502 253.044 344.084 253.044Z" fill="#ED3456"/>
<path d="M348.04 254.696H354.48V253.464H348.04V254.696Z" fill="#ED3456"/>
<path d="M359.781 253.128C361.797 253.128 362.861 252.386 362.861 250.986C362.861 249.628 362.287 249.11 360.495 248.872L359.431 248.732C358.451 248.606 358.129 248.382 358.129 247.864C358.129 247.276 358.563 247.024 359.599 247.024C360.565 247.024 361.041 247.332 361.195 248.046H362.693C362.581 246.618 361.461 245.82 359.599 245.82C357.737 245.82 356.603 246.618 356.603 247.948C356.603 249.222 357.289 249.852 358.955 250.062L359.949 250.188C360.957 250.314 361.335 250.552 361.335 251.07C361.335 251.63 360.803 251.924 359.781 251.924C358.619 251.924 358.073 251.56 357.933 250.734H356.435C356.533 252.274 357.723 253.128 359.781 253.128Z" fill="#ED3456"/>
<path d="M368.218 253.128C370.108 253.128 371.284 252.162 371.48 250.804H369.968C369.814 251.434 369.268 251.868 368.218 251.868C367.014 251.868 366.314 251.168 366.202 249.992H371.508V249.474C371.508 247.22 370.248 245.82 368.218 245.82C366.02 245.82 364.606 247.248 364.606 249.488C364.606 251.7 366.02 253.128 368.218 253.128ZM366.216 248.858C366.356 247.696 367.042 247.08 368.218 247.08C369.24 247.08 369.912 247.752 369.982 248.858H366.216Z" fill="#ED3456"/>
<path d="M376.598 253.128C378.474 253.128 379.692 252.078 379.874 250.524H378.362C378.152 251.49 377.606 251.868 376.598 251.868C375.338 251.868 374.582 250.986 374.582 249.488C374.582 248.004 375.324 247.08 376.598 247.08C377.564 247.08 378.138 247.5 378.292 248.424H379.804C379.664 246.87 378.404 245.82 376.598 245.82C374.456 245.82 373 247.304 373 249.488C373 251.7 374.414 253.128 376.598 253.128Z" fill="#ED3456"/>
<path d="M381.549 253.044H388.143V251.812H384.979V249.558C384.979 247.906 386.085 247.332 387.793 247.332H388.143V245.82C386.421 245.82 385.399 246.548 384.965 247.43H384.909V245.904H381.549V247.136H383.425V251.812H381.549V253.044Z" fill="#ED3456"/>
<path d="M393.401 253.128C395.291 253.128 396.467 252.162 396.663 250.804H395.151C394.997 251.434 394.451 251.868 393.401 251.868C392.197 251.868 391.497 251.168 391.385 249.992H396.691V249.474C396.691 247.22 395.431 245.82 393.401 245.82C391.203 245.82 389.789 247.248 389.789 249.488C389.789 251.7 391.203 253.128 393.401 253.128ZM391.399 248.858C391.539 247.696 392.225 247.08 393.401 247.08C394.423 247.08 395.095 247.752 395.165 248.858H391.399Z" fill="#ED3456"/>
<path d="M402.846 253.044H404.848V251.812H403.14C402.37 251.812 401.95 251.392 401.95 250.622V247.136H404.848V245.904H401.95V243.804H400.466V245.414C400.466 245.722 400.284 245.904 399.976 245.904H398.268V247.136H400.396V250.594C400.396 252.176 401.264 253.044 402.846 253.044Z" fill="#ED3456"/>
<path d="M408.23 255.704C409.63 255.704 410.484 254.934 410.484 253.534V250.51C410.484 250.02 410.764 249.74 411.254 249.74H412.738V248.368H411.254C410.764 248.368 410.484 248.088 410.484 247.598V244.574C410.484 243.174 409.63 242.404 408.23 242.404H406.872V243.636H408.23C408.72 243.636 409 243.916 409 244.406V247.304C409 248.172 409.476 248.788 410.344 249.026V249.082C409.476 249.32 409 249.936 409 250.804V253.702C409 254.192 408.72 254.472 408.23 254.472H406.872V255.704H408.23Z" fill="#ED3456"/>
</g>
<rect x="23.9211" y="17.9211" width="856.158" height="524.561" rx="20.0789" stroke="black" stroke-width="0.157727"/>
</g>
<defs>
<filter id="filter0_ddd_145_2535" x="0.183161" y="0.492261" width="903.634" height="572.037" filterUnits="userSpaceOnUse" color-interpolation-filters="sRGB">
<feFlood flood-opacity="0" result="BackgroundImageFix"/>
<feColorMatrix in="SourceAlpha" type="matrix" values="0 0 0 0 0 0 0 0 0 0 0 0 0 0 0 0 0 0 127 0" result="hardAlpha"/>
<feMorphology radius="6.3091" operator="erode" in="SourceAlpha" result="effect1_dropShadow_145_2535"/>
<feOffset dy="9.46365"/>
<feGaussianBlur stdDeviation="7.88637"/>
<feColorMatrix type="matrix" values="0 0 0 0 0 0 0 0 0 0 0 0 0 0 0 0 0 0 0.25 0"/>
<feBlend mode="normal" in2="BackgroundImageFix" result="effect1_dropShadow_145_2535"/>
<feColorMatrix in="SourceAlpha" type="matrix" values="0 0 0 0 0 0 0 0 0 0 0 0 0 0 0 0 0 0 127 0" result="hardAlpha"/>
<feMorphology radius="4.73182" operator="dilate" in="SourceAlpha" result="effect2_dropShadow_145_2535"/>
<feOffset dy="6.3091"/>
<feGaussianBlur stdDeviation="9.46365"/>
<feColorMatrix type="matrix" values="0 0 0 0 0 0 0 0 0 0 0 0 0 0 0 0 0 0 0.18 0"/>
<feBlend mode="normal" in2="effect1_dropShadow_145_2535" result="effect2_dropShadow_145_2535"/>
<feColorMatrix in="SourceAlpha" type="matrix" values="0 0 0 0 0 0 0 0 0 0 0 0 0 0 0 0 0 0 127 0" result="hardAlpha"/>
<feMorphology radius="1.57728" operator="dilate" in="SourceAlpha" result="effect3_dropShadow_145_2535"/>
<feOffset/>
<feGaussianBlur stdDeviation="3.15455"/>
<feColorMatrix type="matrix" values="0 0 0 0 0 0 0 0 0 0 0 0 0 0 0 0 0 0 0.18 0"/>
<feBlend mode="normal" in2="effect2_dropShadow_145_2535" result="effect3_dropShadow_145_2535"/>
<feBlend mode="normal" in="SourceGraphic" in2="effect3_dropShadow_145_2535" result="shape"/>
</filter>
<filter id="filter1_iii_145_2535" x="24" y="18" width="855.702" height="16.4038" filterUnits="userSpaceOnUse" color-interpolation-filters="sRGB">
<feFlood flood-opacity="0" result="BackgroundImageFix"/>
<feBlend mode="normal" in="SourceGraphic" in2="BackgroundImageFix" result="shape"/>
<feColorMatrix in="SourceAlpha" type="matrix" values="0 0 0 0 0 0 0 0 0 0 0 0 0 0 0 0 0 0 127 0" result="hardAlpha"/>
<feOffset dx="-0.157727"/>
<feComposite in2="hardAlpha" operator="arithmetic" k2="-1" k3="1"/>
<feColorMatrix type="matrix" values="0 0 0 0 0.290196 0 0 0 0 0.290196 0 0 0 0 0.290196 0 0 0 1 0"/>
<feBlend mode="normal" in2="shape" result="effect1_innerShadow_145_2535"/>
<feColorMatrix in="SourceAlpha" type="matrix" values="0 0 0 0 0 0 0 0 0 0 0 0 0 0 0 0 0 0 127 0" result="hardAlpha"/>
<feOffset dx="0.157727"/>
<feComposite in2="hardAlpha" operator="arithmetic" k2="-1" k3="1"/>
<feColorMatrix type="matrix" values="0 0 0 0 0.290196 0 0 0 0 0.290196 0 0 0 0 0.290196 0 0 0 1 0"/>
<feBlend mode="normal" in2="effect1_innerShadow_145_2535" result="effect2_innerShadow_145_2535"/>
<feColorMatrix in="SourceAlpha" type="matrix" values="0 0 0 0 0 0 0 0 0 0 0 0 0 0 0 0 0 0 127 0" result="hardAlpha"/>
<feOffset dy="0.315455"/>
<feComposite in2="hardAlpha" operator="arithmetic" k2="-1" k3="1"/>
<feColorMatrix type="matrix" values="0 0 0 0 0.494118 0 0 0 0 0.494118 0 0 0 0 0.494118 0 0 0 1 0"/>
<feBlend mode="normal" in2="effect2_innerShadow_145_2535" result="effect3_innerShadow_145_2535"/>
</filter>
<filter id="filter2_dd_145_2535" x="260.5" y="43.4038" width="231" height="82" filterUnits="userSpaceOnUse" color-interpolation-filters="sRGB">
<feFlood flood-opacity="0" result="BackgroundImageFix"/>
<feColorMatrix in="SourceAlpha" type="matrix" values="0 0 0 0 0 0 0 0 0 0 0 0 0 0 0 0 0 0 127 0" result="hardAlpha"/>
<feOffset dy="5"/>
<feGaussianBlur stdDeviation="5"/>
<feColorMatrix type="matrix" values="0 0 0 0 0 0 0 0 0 0 0 0 0 0 0 0 0 0 0.05 0"/>
<feBlend mode="normal" in2="BackgroundImageFix" result="effect1_dropShadow_145_2535"/>
<feColorMatrix in="SourceAlpha" type="matrix" values="0 0 0 0 0 0 0 0 0 0 0 0 0 0 0 0 0 0 127 0" result="hardAlpha"/>
<feOffset dy="10"/>
<feGaussianBlur stdDeviation="12.5"/>
<feColorMatrix type="matrix" values="0 0 0 0 0.196078 0 0 0 0 0.196078 0 0 0 0 0.364706 0 0 0 0.1 0"/>
<feBlend mode="normal" in2="effect1_dropShadow_145_2535" result="effect2_dropShadow_145_2535"/>
<feBlend mode="normal" in="SourceGraphic" in2="effect2_dropShadow_145_2535" result="shape"/>
</filter>
<clipPath id="clip0_145_2535">
<rect width="30.9146" height="7.57092" fill="white" transform="translate(54.2832 22.1011)"/>
</clipPath>
<clipPath id="clip1_145_2535">
<rect width="7.57092" height="7.57092" fill="white" transform="translate(54.2833 22.1011)"/>
</clipPath>
<clipPath id="clip2_145_2535">
<rect width="16.4037" height="3.78546" fill="white" transform="translate(30.3093 24.3091)"/>
</clipPath>
<clipPath id="clip3_145_2535">
<rect width="4.10091" height="4.41637" fill="white" transform="translate(612.662 23.6787)"/>
</clipPath>
<clipPath id="clip4_145_2535">
<rect width="856" height="508" fill="white" transform="translate(24 34.4038)"/>
</clipPath>
</defs>
</svg>
