<svg width="18" height="18" viewBox="0 0 18 18" fill="none" xmlns="http://www.w3.org/2000/svg">
<g id="Google logo" clip-path="url(#clip0_235_680)">
<path id="Vector" d="M17.7945 9.19947C17.7945 8.4616 17.7346 7.92314 17.6051 7.36475H9.1792V10.6952H14.125C14.0253 11.5228 13.4869 12.7693 12.2903 13.6068L12.2735 13.7183L14.9376 15.7822L15.1222 15.8006C16.8173 14.235 17.7945 11.9316 17.7945 9.19947Z" fill="#4285F4"/>
<path id="Vector_2" d="M9.17916 17.9743C11.6022 17.9743 13.6363 17.1765 15.1221 15.8005L12.2902 13.6067C11.5324 14.1352 10.5153 14.5042 9.17916 14.5042C6.80598 14.5042 4.79176 12.9387 4.07375 10.7749L3.96851 10.7838L1.19834 12.9277L1.16211 13.0284C2.63787 15.96 5.66919 17.9743 9.17916 17.9743Z" fill="#34A853"/>
<path id="Vector_3" d="M4.07395 10.7748C3.8845 10.2164 3.77486 9.61808 3.77486 8.99988C3.77486 8.38161 3.8845 7.78335 4.06399 7.22496L4.05897 7.10604L1.25408 4.92773L1.16231 4.97139C0.554082 6.18792 0.205078 7.55403 0.205078 8.99988C0.205078 10.4457 0.554082 11.8118 1.16231 13.0283L4.07395 10.7748Z" fill="#FBBC05"/>
<path id="Vector_4" d="M9.17916 3.49591C10.8643 3.49591 12.001 4.22382 12.6492 4.83212L15.1819 2.35919C13.6264 0.91334 11.6022 0.0258789 9.17916 0.0258789C5.66919 0.0258789 2.63787 2.04009 1.16211 4.97167L4.06378 7.22524C4.79176 5.06145 6.80598 3.49591 9.17916 3.49591Z" fill="#EB4335"/>
</g>
<defs>
<clipPath id="clip0_235_680">
<rect width="17.5896" height="18" fill="white" transform="translate(0.205078)"/>
</clipPath>
</defs>
</svg>
