<svg width="1440" height="912" viewBox="0 0 1440 912" fill="none"
    xmlns="http://www.w3.org/2000/svg"
    xmlns:xlink="http://www.w3.org/1999/xlink">
    <g clip-path="url(#clip0_147_3247)">
        <rect width="1440" height="912" fill="#101722"/>
        <g filter="url(#filter0_f_147_3247)">
            <path fill-rule="evenodd" clip-rule="evenodd" d="M893.389 589.519C937.768 604.802 941.545 665.421 978.409 693.574C1012.33 719.478 1078.78 704.307 1094.42 743.045C1109.82 781.194 1060.75 814.954 1042.31 851.847C1027.04 882.399 1016.04 912.632 995.78 940.399C964.813 982.835 945.245 1041.2 893.389 1055.92C839.514 1071.21 774.066 1052.91 734.722 1014.52C696.621 977.334 714.267 915.972 698.816 866.042C683.99 818.131 636.654 777.831 646.28 728.72C656.176 678.232 701.902 640.343 748.163 614.283C791.6 589.815 845.962 573.187 893.389 589.519Z" fill="#E14594"/>
        </g>
        <g filter="url(#filter1_f_147_3247)">
            <path fill-rule="evenodd" clip-rule="evenodd" d="M965.355 1130.24C985.166 1137.06 986.852 1164.11 1003.31 1176.67C1018.45 1188.23 1048.11 1181.46 1055.1 1198.75C1061.97 1215.77 1040.06 1230.83 1031.83 1247.29C1025.01 1260.93 1020.11 1274.42 1011.06 1286.81C997.239 1305.74 988.504 1331.78 965.355 1338.35C941.306 1345.18 912.09 1337.01 894.528 1319.88C877.52 1303.29 885.397 1275.91 878.499 1253.63C871.881 1232.25 850.751 1214.27 855.048 1192.35C859.465 1169.83 879.877 1152.92 900.528 1141.29C919.918 1130.37 944.185 1122.95 965.355 1130.24Z" fill="#E14594"/>
        </g>
        <g filter="url(#filter2_f_147_3247)">
            <path fill-rule="evenodd" clip-rule="evenodd" d="M1148.39 699.519C1192.77 714.802 1196.54 775.421 1233.41 803.574C1267.33 829.478 1333.78 814.307 1349.42 853.045C1364.82 891.194 1315.75 924.954 1297.31 961.847C1282.04 992.399 1271.04 1022.63 1250.78 1050.4C1219.81 1092.84 1200.24 1151.2 1148.39 1165.92C1094.51 1181.21 1029.07 1162.91 989.722 1124.52C951.621 1087.33 969.267 1025.97 953.816 976.042C938.99 928.131 891.654 887.831 901.28 838.72C911.176 788.232 956.902 750.343 1003.16 724.283C1046.6 699.815 1100.96 683.187 1148.39 699.519Z" fill="#E14594"/>
        </g>
        <g filter="url(#filter3_f_147_3247)">
            <path fill-rule="evenodd" clip-rule="evenodd" d="M695.715 667.262C768.638 655.887 827.871 723.881 882.514 771.455C931.686 814.266 971.337 864.855 992.077 925.285C1012.87 985.864 1027.04 1053.78 999.31 1111.76C972.627 1167.55 906.872 1191.91 850.532 1221.23C801.633 1246.68 751.332 1267.52 695.715 1269.74C638.127 1272.03 582.219 1259.67 531.235 1233.95C473.197 1204.68 390.671 1176.22 386.17 1113.61C381.397 1047.21 478.72 1018.83 511.554 960.158C535.341 917.654 522.512 864.873 548.489 823.558C587.223 761.955 621.543 678.832 695.715 667.262Z" fill="#182952"/>
        </g>
        <g filter="url(#filter4_f_147_3247)">
            <path fill-rule="evenodd" clip-rule="evenodd" d="M357.002 757.112C423.817 753.26 444.523 848.484 496.602 888.769C544.499 925.818 615.153 932.4 648.054 982.248C685.456 1038.92 720.932 1117.26 685.614 1175.14C649.227 1234.77 555.17 1220.89 487.653 1245.13C442.883 1261.2 404.563 1297.79 357.002 1293.11C311.032 1288.59 284.984 1242.55 244.496 1221.2C194.953 1195.08 119.143 1203.29 94.3016 1154.62C69.8664 1106.75 107.723 1050.55 133.216 1003.19C155.292 962.173 197.456 938.982 229.097 904.19C273.949 854.87 288.848 761.041 357.002 757.112Z" fill="#E14594"/>
        </g>
        <g filter="url(#filter5_f_147_3247)">
            <path fill-rule="evenodd" clip-rule="evenodd" d="M1119.71 559.528C1164.72 564.905 1209.24 575.845 1244.28 603.401C1277.96 629.894 1288.94 671.57 1309.16 708.532C1334.65 755.124 1398 798.732 1377.89 847.674C1357.42 897.519 1277.83 886.275 1226.96 908.637C1189.55 925.083 1160.87 961.932 1119.71 961.176C1078.77 960.424 1051.56 923.148 1015.41 904.751C970.778 882.033 908.274 882.974 883.369 840.883C857.963 797.946 877.166 743.902 892.332 696.745C907.718 648.905 926.025 597.366 970.276 570.661C1013.59 544.52 1068.89 553.455 1119.71 559.528Z" fill="#2B3595"/>
        </g>
        <g filter="url(#filter6_f_147_3247)">
            <path fill-rule="evenodd" clip-rule="evenodd" d="M213.937 462.596C263.885 463.437 273.873 537.573 316.73 562.152C367.145 591.066 448.171 567.436 479.625 614.971C510.116 661.05 490.275 729.274 456.282 773.049C424.836 813.543 355.237 798.067 313.51 828.887C269.502 861.392 267.177 936.778 213.937 952.05C160.394 967.408 91.5929 945.363 58.9702 901.901C26.4634 858.592 57.0389 799.107 59.1353 745.809C60.395 713.784 60.5882 683.548 68.781 652.475C77.6247 618.935 87.1463 586.559 108.485 558.647C137.859 520.221 164.217 461.759 213.937 462.596Z" fill="#7045AF"/>
        </g>
        <g filter="url(#filter7_f_147_3247)">
            <path fill-rule="evenodd" clip-rule="evenodd" d="M169.847 893.668C219.794 894.509 229.782 968.645 272.64 993.224C323.055 1022.14 404.081 998.508 435.535 1046.04C466.026 1092.12 446.184 1160.35 412.191 1204.12C380.746 1244.61 311.146 1229.14 269.42 1259.96C225.412 1292.46 223.087 1367.85 169.847 1383.12C116.304 1398.48 47.5023 1376.44 14.8797 1332.97C-17.6272 1289.66 12.9483 1230.18 15.0447 1176.88C16.3044 1144.86 16.4976 1114.62 24.6905 1083.55C33.5341 1050.01 43.0557 1017.63 64.394 989.719C93.7689 951.293 120.126 892.831 169.847 893.668Z" fill="#7045AF"/>
        </g>
    </g>
    <defs>
        <filter id="filter0_f_147_3247" x="145" y="83" width="1452.37" height="1478.31" filterUnits="userSpaceOnUse" color-interpolation-filters="sRGB">
            <feFlood flood-opacity="0" result="BackgroundImageFix"/>
            <feBlend mode="normal" in="SourceGraphic" in2="BackgroundImageFix" result="shape"/>
            <feGaussianBlur stdDeviation="250" result="effect1_foregroundBlur_147_3247"/>
        </filter>
        <filter id="filter1_f_147_3247" x="354.476" y="627.332" width="1201.94" height="1213.43" filterUnits="userSpaceOnUse" color-interpolation-filters="sRGB">
            <feFlood flood-opacity="0" result="BackgroundImageFix"/>
            <feBlend mode="normal" in="SourceGraphic" in2="BackgroundImageFix" result="shape"/>
            <feGaussianBlur stdDeviation="250" result="effect1_foregroundBlur_147_3247"/>
        </filter>
        <filter id="filter2_f_147_3247" x="400" y="193" width="1452.37" height="1478.31" filterUnits="userSpaceOnUse" color-interpolation-filters="sRGB">
            <feFlood flood-opacity="0" result="BackgroundImageFix"/>
            <feBlend mode="normal" in="SourceGraphic" in2="BackgroundImageFix" result="shape"/>
            <feGaussianBlur stdDeviation="250" result="effect1_foregroundBlur_147_3247"/>
        </filter>
        <filter id="filter3_f_147_3247" x="-114" y="166" width="1628.73" height="1604.01" filterUnits="userSpaceOnUse" color-interpolation-filters="sRGB">
            <feFlood flood-opacity="0" result="BackgroundImageFix"/>
            <feBlend mode="normal" in="SourceGraphic" in2="BackgroundImageFix" result="shape"/>
            <feGaussianBlur stdDeviation="250" result="effect1_foregroundBlur_147_3247"/>
        </filter>
        <filter id="filter4_f_147_3247" x="-413.583" y="256.998" width="1613.74" height="1536.52" filterUnits="userSpaceOnUse" color-interpolation-filters="sRGB">
            <feFlood flood-opacity="0" result="BackgroundImageFix"/>
            <feBlend mode="normal" in="SourceGraphic" in2="BackgroundImageFix" result="shape"/>
            <feGaussianBlur stdDeviation="250" result="effect1_foregroundBlur_147_3247"/>
        </filter>
        <filter id="filter5_f_147_3247" x="371" y="53" width="1510.77" height="1408.19" filterUnits="userSpaceOnUse" color-interpolation-filters="sRGB">
            <feFlood flood-opacity="0" result="BackgroundImageFix"/>
            <feBlend mode="normal" in="SourceGraphic" in2="BackgroundImageFix" result="shape"/>
            <feGaussianBlur stdDeviation="250" result="effect1_foregroundBlur_147_3247"/>
        </filter>
        <filter id="filter6_f_147_3247" x="-455.909" y="-37.4131" width="1450.61" height="1494.34" filterUnits="userSpaceOnUse" color-interpolation-filters="sRGB">
            <feFlood flood-opacity="0" result="BackgroundImageFix"/>
            <feBlend mode="normal" in="SourceGraphic" in2="BackgroundImageFix" result="shape"/>
            <feGaussianBlur stdDeviation="250" result="effect1_foregroundBlur_147_3247"/>
        </filter>
        <filter id="filter7_f_147_3247" x="-500" y="393.659" width="1450.61" height="1494.34" filterUnits="userSpaceOnUse" color-interpolation-filters="sRGB">
            <feFlood flood-opacity="0" result="BackgroundImageFix"/>
            <feBlend mode="normal" in="SourceGraphic" in2="BackgroundImageFix" result="shape"/>
            <feGaussianBlur stdDeviation="250" result="effect1_foregroundBlur_147_3247"/>
        </filter>
        <pattern id="pattern0" patternContentUnits="objectBoundingBox" width="1" height="1">
            <use xlink:href="#image0_147_3247" transform="matrix(0.001 0 0 0.00821053 0 -3.60526)"/>
        </pattern>
        <clipPath id="clip0_147_3247">
            <rect width="1440" height="912" fill="white"/>
        </clipPath>
    </defs>
</svg>
