<svg width="69" height="53" viewBox="0 0 69 53" fill="none" xmlns="http://www.w3.org/2000/svg">
<g id="undraw_arrow 1" clip-path="url(#clip0_145_3135)">
<path id="Vector" d="M6.82302 38.2732C21.9149 34.7522 36.0043 27.595 47.5259 17.1945C50.8927 14.1553 54.0274 10.8726 56.9429 7.39926C57.811 6.3651 59.555 6.44208 60.4788 7.33366C61.508 8.32711 61.4156 9.83155 60.5444 10.8695C50.0279 23.398 36.5363 33.1202 21.2898 39.0518C17.0086 40.7174 12.6102 42.0552 8.13742 43.0987C5.01491 43.8272 3.67684 39.0073 6.82302 38.2732Z" fill="#2B3595"/>
<path id="Vector_2" d="M57.7348 20.4128L57.4796 14.9099L57.3484 12.0799L57.2828 10.6648C57.2742 10.4808 57.2125 10.2145 57.2536 10.0359C57.0862 10.7628 59.5778 11.162 58.6256 11.3448C57.785 11.5061 56.8301 11.4297 55.9747 11.4702C55.039 11.5144 54.1034 11.5587 53.1678 11.603C51.2965 11.6915 49.4252 11.78 47.5539 11.8685C46.2457 11.9304 44.9892 10.6939 45.0386 9.38312C45.0914 7.98429 46.1247 6.934 47.524 6.86781C49.7072 6.76454 51.8903 6.66126 54.0735 6.55799C55.1131 6.50882 56.1527 6.45963 57.1923 6.41046C58.4901 6.34906 59.7758 6.17199 60.8872 6.99349C62.0228 7.83287 62.2152 9.16263 62.2762 10.4777L62.4293 13.7795C62.5314 15.9806 62.6334 18.1818 62.7355 20.3829C62.7962 21.6912 61.5618 22.9477 60.2501 22.8983C58.8523 22.8455 57.7997 21.8122 57.7348 20.4128Z" fill="#2B3595"/>
</g>
<defs>
<clipPath id="clip0_145_3135">
<rect width="65.7606" height="20.94" fill="white" transform="matrix(0.860298 -0.509792 -0.509792 -0.860298 11.4978 52.1836)"/>
</clipPath>
</defs>
</svg>
